<svg width="1522" height="1500" version="1.1" xmlns="http://www.w3.org/2000/svg" desc="Created with imagetracer.js version 1.2.6" ><path fill="rgb(0,0,0)" stroke="rgb(0,0,0)" stroke-width="1" opacity="0" d="M 0 0 L 1522 0 L 1522 1500 L 0 1500 L 0 0 Z M 743 334 Q 732 337 726 343 Q 718 350 715 362 Q 713 374 716 382 L 724 395 Q 731 402 743 405 Q 755 407 763 404 L 775 397 Q 783 390 786 378 Q 788 365 785 358 L 778 346 Q 772 339 763 335 Q 755 332 743 334 Z M 534 394 L 525 398 Q 515 404 512 416 Q 510 432 516 440 Q 522 449 534 452 Q 550 454 558 448 Q 567 442 570 431 Q 572 414 566 407 Q 561 399 552 395 L 549 394 L 534 394 Z M 946 394 L 937 398 Q 927 404 924 416 Q 922 432 928 440 Q 934 449 946 452 Q 962 454 970 448 Q 979 442 982 431 Q 984 414 978 407 Q 973 399 964 395 L 961 394 L 946 394 Z M 582 506 Q 568 509 560 516 Q 545 527 540 548 L 540 568 Q 543 581 550 590 Q 561 604 582 609 L 602 609 Q 615 606 624 599 Q 638 588 643 568 L 643 548 Q 640 534 633 526 Q 625 515 612 509 Q 600 504 582 506 Z M 884 506 Q 870 509 862 516 Q 847 527 842 548 L 842 568 Q 845 581 852 590 Q 863 604 884 609 L 904 609 Q 917 606 926 599 Q 940 588 945 568 L 945 548 Q 942 534 935 526 Q 927 515 914 509 Q 902 504 884 506 Z M 734 524 Q 723 527 717 533 Q 711 540 708 551 Q 707 562 709 570 L 717 583 Q 723 589 734 592 Q 746 594 754 591 L 767 583 Q 773 576 776 566 Q 778 554 775 547 L 767 533 L 754 525 Q 746 522 734 524 Z M 395 549 L 381 556 Q 373 562 370 574 Q 367 594 377 603 Q 383 610 395 613 L 410 613 L 424 606 Q 431 600 434 589 Q 437 568 427 560 Q 421 552 410 549 L 395 549 Z M 1090 549 L 1078 555 Q 1069 562 1066 574 Q 1064 593 1072 602 Q 1078 610 1090 613 L 1106 613 L 1118 607 Q 1126 600 1129 589 Q 1131 569 1123 561 Q 1118 553 1109 550 L 1106 549 L 1090 549 Z M 582 692 Q 568 695 560 702 Q 545 713 540 734 L 540 754 Q 543 767 550 776 Q 561 790 582 795 L 602 795 Q 615 792 624 785 Q 638 774 643 754 L 643 734 Q 640 720 633 712 Q 625 701 612 695 Q 600 690 582 692 Z M 730 692 Q 716 695 708 702 Q 693 713 688 734 L 688 754 Q 691 767 698 776 Q 709 790 730 795 L 750 795 Q 763 792 772 785 Q 786 774 791 754 L 791 734 Q 788 720 781 712 Q 773 701 760 695 Q 748 690 730 692 Z M 883 693 Q 869 696 861 703 Q 846 714 841 735 L 841 755 Q 844 768 851 777 Q 862 791 883 796 L 903 796 Q 916 793 925 786 Q 939 775 944 755 L 944 735 Q 941 721 934 713 Q 926 702 913 696 Q 901 691 883 693 Z M 356 717 L 346 721 L 340 725 L 336 731 L 332 741 Q 331 751 333 759 L 340 770 L 346 774 L 356 778 Q 366 779 374 777 L 385 770 L 393 756 L 393 740 L 386 727 L 374 718 Q 366 716 356 717 Z M 1113 717 L 1103 721 L 1097 725 L 1093 731 L 1089 741 Q 1088 751 1090 759 L 1097 770 L 1103 774 L 1113 778 Q 1123 779 1131 777 L 1142 770 L 1150 756 L 1150 740 L 1143 727 L 1131 718 Q 1123 716 1113 717 Z M 582 881 Q 568 884 560 891 Q 545 902 540 923 L 540 943 Q 543 956 550 965 Q 561 979 582 984 L 602 984 Q 615 981 624 974 Q 638 963 643 943 L 643 923 Q 640 909 633 901 Q 625 890 612 884 Q 600 879 582 881 Z M 884 881 Q 870 884 862 891 Q 847 902 842 923 L 842 943 Q 845 956 852 965 Q 863 979 884 984 L 904 984 Q 917 981 926 974 Q 940 963 945 943 L 945 923 Q 942 909 935 901 Q 927 890 914 884 Q 902 879 884 881 Z M 398 882 L 384 889 Q 376 895 373 907 Q 370 927 380 936 Q 386 943 398 946 L 413 946 L 427 939 Q 434 933 437 922 Q 439 901 430 893 Q 424 885 413 882 L 398 882 Z M 1095 882 L 1085 886 L 1079 890 L 1075 896 L 1071 906 Q 1070 916 1072 924 L 1079 935 L 1085 939 L 1095 943 Q 1105 944 1113 942 L 1124 935 L 1132 921 L 1132 905 L 1125 892 L 1113 883 Q 1105 881 1095 882 Z M 739 901 Q 728 904 722 910 Q 716 917 713 928 Q 712 939 714 947 L 722 960 Q 728 966 739 969 Q 751 971 759 968 L 772 960 Q 778 953 781 943 Q 783 931 780 924 L 772 910 L 759 902 Q 751 899 739 901 Z M 539 1047 L 530 1051 Q 520 1057 517 1069 Q 515 1085 521 1093 Q 527 1102 539 1105 Q 555 1107 563 1101 Q 572 1095 575 1084 Q 577 1067 571 1060 Q 566 1052 557 1048 L 554 1047 L 539 1047 Z M 946 1047 L 937 1051 Q 927 1057 924 1069 Q 922 1085 928 1093 Q 934 1102 946 1105 Q 962 1107 970 1101 Q 979 1095 982 1084 Q 984 1067 978 1060 Q 973 1052 964 1048 L 961 1047 L 946 1047 Z M 743 1095 Q 732 1098 726 1104 Q 718 1111 715 1123 Q 713 1135 716 1143 L 724 1156 Q 731 1163 743 1166 Q 755 1168 763 1165 L 775 1158 Q 783 1151 786 1139 Q 788 1126 785 1119 L 778 1107 Q 772 1100 763 1096 Q 755 1093 743 1095 Z " /><path fill="rgb(25,39,228)" stroke="rgb(25,39,228)" stroke-width="1" opacity="0.5372549019607843" d="M 742.5 334 L 747 334.5 L 742.5 335 L 742.5 334 Z " /><path fill="rgb(25,39,228)" stroke="rgb(25,39,228)" stroke-width="1" opacity="0.5372549019607843" d="M 754.5 334 L 759 334.5 L 754.5 335 L 754.5 334 Z " /><path fill="rgb(25,39,228)" stroke="rgb(25,39,228)" stroke-width="1" opacity="0.5372549019607843" d="M 738.5 335 L 741 335.5 Q 727.6 339.1 721 349.5 L 716.5 360 L 716 357.5 Q 719.3 348.8 725.5 343 L 738.5 335 Z " /><path fill="rgb(25,39,228)" stroke="rgb(25,39,228)" stroke-width="1" opacity="0.5372549019607843" d="M 760.5 335 Q 771.8 337.8 778 345.5 L 785 359.5 L 784 359.5 Q 780.8 346.2 770.5 340 L 760.5 336 L 760.5 335 Z " /><path fill="rgb(25,39,228)" stroke="rgb(25,39,228)" stroke-width="1" opacity="0.5372549019607843" d="M 715.5 361 L 716 365.5 L 715 365.5 L 715.5 361 Z " /><path fill="rgb(25,39,228)" stroke="rgb(25,39,228)" stroke-width="1" opacity="0.5372549019607843" d="M 785.5 361 L 786 364.5 L 785 364.5 L 785.5 361 Z " /><path fill="rgb(25,39,228)" stroke="rgb(25,39,228)" stroke-width="1" opacity="0.5372549019607843" d="M 715.5 373 L 716 377.5 L 715 377.5 L 715.5 373 Z " /><path fill="rgb(25,39,228)" stroke="rgb(25,39,228)" stroke-width="1" opacity="0.5372549019607843" d="M 785.5 374 L 786 377.5 L 785 377.5 L 785.5 374 Z " /><path fill="rgb(25,39,228)" stroke="rgb(25,39,228)" stroke-width="1" opacity="0.5372549019607843" d="M 716.5 379 Q 720.1 392.4 730.5 399 L 741 403.5 L 738.5 404 Q 729.8 400.8 724 394.5 L 716 381.5 L 716.5 379 Z " /><path fill="rgb(25,39,228)" stroke="rgb(25,39,228)" stroke-width="1" opacity="0.5372549019607843" d="M 784.5 379 L 785 381.5 Q 781.5 391 774.5 397 L 760.5 404 L 760.5 403 Q 773.8 399.8 780 389.5 L 784.5 379 Z " /><path fill="rgb(25,39,228)" stroke="rgb(25,39,228)" stroke-width="1" opacity="0.5372549019607843" d="M 533.5 394 L 538 394.5 Q 523.4 396.4 517 406.5 L 512.5 419 L 512 415.5 Q 515.4 403.9 524.5 398 L 533.5 394 Z " /><path fill="rgb(25,39,228)" stroke="rgb(25,39,228)" stroke-width="1" opacity="0.5372549019607843" d="M 545.5 394 Q 559.9 396.1 566 406.5 Q 569.5 411 570 418.5 L 569 418.5 Q 567.1 404.9 557.5 399 Q 553 395.5 545.5 395 L 545.5 394 Z " /><path fill="rgb(25,39,228)" stroke="rgb(25,39,228)" stroke-width="1" opacity="0.5372549019607843" d="M 945.5 394 L 950 394.5 Q 935.4 396.4 929 406.5 L 924.5 419 L 924 415.5 Q 927.4 403.9 936.5 398 L 945.5 394 Z " /><path fill="rgb(25,39,228)" stroke="rgb(25,39,228)" stroke-width="1" opacity="0.5372549019607843" d="M 957.5 394 Q 971.9 396.1 978 406.5 Q 981.5 411 982 418.5 L 981 418.5 Q 979.1 404.9 969.5 399 Q 965 395.5 957.5 395 L 957.5 394 Z " /><path fill="rgb(25,39,228)" stroke="rgb(25,39,228)" stroke-width="1" opacity="0.5372549019607843" d="M 742.5 404 L 747 404.5 L 742.5 405 L 742.5 404 Z " /><path fill="rgb(25,39,228)" stroke="rgb(25,39,228)" stroke-width="1" opacity="0.5372549019607843" d="M 754.5 404 L 759 404.5 L 754.5 405 L 754.5 404 Z " /><path fill="rgb(25,39,228)" stroke="rgb(25,39,228)" stroke-width="1" opacity="0.5372549019607843" d="M 512.5 427 Q 514.7 440.8 524.5 447 L 537 451.5 L 533.5 452 Q 521.9 448.6 516 439.5 L 512 430.5 L 512.5 427 Z " /><path fill="rgb(25,39,228)" stroke="rgb(25,39,228)" stroke-width="1" opacity="0.5372549019607843" d="M 569.5 427 L 570 430.5 Q 566.6 442.1 557.5 448 Q 553 451.5 545.5 452 L 545.5 451 Q 559.1 449.1 565 439.5 L 569.5 427 Z " /><path fill="rgb(25,39,228)" stroke="rgb(25,39,228)" stroke-width="1" opacity="0.5372549019607843" d="M 924.5 427 Q 926.7 440.8 936.5 447 L 949 451.5 L 945.5 452 Q 933.9 448.6 928 439.5 L 924 430.5 L 924.5 427 Z " /><path fill="rgb(25,39,228)" stroke="rgb(25,39,228)" stroke-width="1" opacity="0.5372549019607843" d="M 981.5 427 L 982 430.5 Q 978.6 442.1 969.5 448 Q 965 451.5 957.5 452 L 957.5 451 Q 971.1 449.1 977 439.5 L 981.5 427 Z " /><path fill="rgb(25,39,228)" stroke="rgb(25,39,228)" stroke-width="1" opacity="0.5372549019607843" d="M 581.5 506 L 587 506.5 L 581.5 507 L 581.5 506 Z " /><path fill="rgb(25,39,228)" stroke="rgb(25,39,228)" stroke-width="1" opacity="0.5372549019607843" d="M 596.5 506 L 602 506.5 L 596.5 507 L 596.5 506 Z " /><path fill="rgb(25,39,228)" stroke="rgb(25,39,228)" stroke-width="1" opacity="0.5372549019607843" d="M 883.5 506 L 889 506.5 L 883.5 507 L 883.5 506 Z " /><path fill="rgb(25,39,228)" stroke="rgb(25,39,228)" stroke-width="1" opacity="0.5372549019607843" d="M 898.5 506 L 904 506.5 L 898.5 507 L 898.5 506 Z " /><path fill="rgb(25,39,228)" stroke="rgb(25,39,228)" stroke-width="1" opacity="0.5372549019607843" d="M 577.5 507 L 580 507.5 L 577.5 508 L 577.5 507 Z " /><path fill="rgb(25,39,228)" stroke="rgb(25,39,228)" stroke-width="1" opacity="0.5372549019607843" d="M 603.5 507 L 606 507.5 L 603.5 508 L 603.5 507 Z " /><path fill="rgb(25,39,228)" stroke="rgb(25,39,228)" stroke-width="1" opacity="0.5372549019607843" d="M 879.5 507 L 882 507.5 L 879.5 508 L 879.5 507 Z " /><path fill="rgb(25,39,228)" stroke="rgb(25,39,228)" stroke-width="1" opacity="0.5372549019607843" d="M 905.5 507 L 908 507.5 L 905.5 508 L 905.5 507 Z " /><path fill="rgb(25,39,228)" stroke="rgb(25,39,228)" stroke-width="1" opacity="0.5372549019607843" d="M 574.5 508 L 576 508.5 Q 560.1 513.6 551 525.5 Q 544.1 533.6 541.5 546 L 541 543.5 Q 546.4 525.9 559.5 516 L 574.5 508 Z " /><path fill="rgb(25,39,228)" stroke="rgb(25,39,228)" stroke-width="1" opacity="0.5372549019607843" d="M 607.5 508 Q 623.8 513.2 633 525.5 L 641 541.5 L 640 541.5 Q 635.2 525.8 623.5 517 L 607.5 509 L 607.5 508 Z " /><path fill="rgb(25,39,228)" stroke="rgb(25,39,228)" stroke-width="1" opacity="0.5372549019607843" d="M 876.5 508 L 878 508.5 Q 862.1 513.6 853 525.5 Q 846.1 533.6 843.5 546 L 843 543.5 Q 848.4 525.9 861.5 516 L 876.5 508 Z " /><path fill="rgb(25,39,228)" stroke="rgb(25,39,228)" stroke-width="1" opacity="0.5372549019607843" d="M 909.5 508 Q 925.8 513.2 935 525.5 L 943 541.5 L 942 541.5 Q 937.2 525.8 925.5 517 L 909.5 509 L 909.5 508 Z " /><path fill="rgb(25,39,228)" stroke="rgb(25,39,228)" stroke-width="1" opacity="0.5372549019607843" d="M 733.5 524 L 738 524.5 Q 721.5 527 714 538.5 L 709.5 549 L 709 546.5 L 717 533 Q 723.5 527.4 733.5 524 Z " /><path fill="rgb(25,39,228)" stroke="rgb(25,39,228)" stroke-width="1" opacity="0.5372549019607843" d="M 746.5 524 L 750 524.5 L 746.5 525 L 746.5 524 Z " /><path fill="rgb(25,39,228)" stroke="rgb(25,39,228)" stroke-width="1" opacity="0.5372549019607843" d="M 751.5 525 L 761.5 529 L 767 533 L 771 538.5 L 775 548.5 L 774 548.5 Q 771.1 535.9 761.5 530 L 751.5 526 L 751.5 525 Z " /><path fill="rgb(25,39,228)" stroke="rgb(25,39,228)" stroke-width="1" opacity="0.5372549019607843" d="M 641.5 543 L 642 545.5 L 641 545.5 L 641.5 543 Z " /><path fill="rgb(25,39,228)" stroke="rgb(25,39,228)" stroke-width="1" opacity="0.5372549019607843" d="M 943.5 543 L 944 545.5 L 943 545.5 L 943.5 543 Z " /><path fill="rgb(25,39,228)" stroke="rgb(25,39,228)" stroke-width="1" opacity="0.5372549019607843" d="M 540.5 547 L 541 552.5 L 540 552.5 L 540.5 547 Z " /><path fill="rgb(25,39,228)" stroke="rgb(25,39,228)" stroke-width="1" opacity="0.5372549019607843" d="M 642.5 547 L 643 552.5 L 642 552.5 L 642.5 547 Z " /><path fill="rgb(25,39,228)" stroke="rgb(25,39,228)" stroke-width="1" opacity="0.5372549019607843" d="M 842.5 547 L 843 552.5 L 842 552.5 L 842.5 547 Z " /><path fill="rgb(25,39,228)" stroke="rgb(25,39,228)" stroke-width="1" opacity="0.5372549019607843" d="M 944.5 547 L 945 552.5 L 944 552.5 L 944.5 547 Z " /><path fill="rgb(25,39,228)" stroke="rgb(25,39,228)" stroke-width="1" opacity="0.5372549019607843" d="M 394.5 549 L 398 549.5 L 394.5 550 L 394.5 549 Z " /><path fill="rgb(25,39,228)" stroke="rgb(25,39,228)" stroke-width="1" opacity="0.5372549019607843" d="M 406.5 549 L 410 549.5 L 406.5 550 L 406.5 549 Z " /><path fill="rgb(25,39,228)" stroke="rgb(25,39,228)" stroke-width="1" opacity="0.5372549019607843" d="M 1089.5 549 L 1094 549.5 L 1086.5 551 L 1075 558 L 1071 563.5 L 1067.5 572 L 1067 569.5 Q 1070.5 560.5 1077.5 555 L 1089.5 549 Z " /><path fill="rgb(25,39,228)" stroke="rgb(25,39,228)" stroke-width="1" opacity="0.5372549019607843" d="M 1101.5 549 Q 1116.1 550.9 1123 560.5 L 1128 571.5 L 1127 571.5 Q 1124.9 562.1 1118.5 557 Q 1113 550.5 1101.5 550 L 1101.5 549 Z " /><path fill="rgb(25,39,228)" stroke="rgb(25,39,228)" stroke-width="1" opacity="0.5372549019607843" d="M 708.5 550 L 709 553.5 L 708 553.5 L 708.5 550 Z " /><path fill="rgb(25,39,228)" stroke="rgb(25,39,228)" stroke-width="1" opacity="0.5372549019607843" d="M 775.5 550 L 776 553.5 L 775 553.5 L 775.5 550 Z " /><path fill="rgb(25,39,228)" stroke="rgb(25,39,228)" stroke-width="1" opacity="0.5372549019607843" d="M 388.5 551 L 390 551.5 Q 381.1 555.1 376 562.5 L 371.5 572 L 371 569.5 Q 374.2 561.2 380.5 556 L 388.5 551 Z " /><path fill="rgb(25,39,228)" stroke="rgb(25,39,228)" stroke-width="1" opacity="0.5372549019607843" d="M 414.5 551 Q 422.6 553.4 427 559.5 L 433 571.5 L 432 571.5 Q 429.2 559.3 419.5 554 L 414.5 552 L 414.5 551 Z " /><path fill="rgb(25,39,228)" stroke="rgb(25,39,228)" stroke-width="1" opacity="0.5372549019607843" d="M 540.5 562 L 541 567.5 L 540 567.5 L 540.5 562 Z " /><path fill="rgb(25,39,228)" stroke="rgb(25,39,228)" stroke-width="1" opacity="0.5372549019607843" d="M 642.5 562 L 643 567.5 L 642 567.5 L 642.5 562 Z " /><path fill="rgb(25,39,228)" stroke="rgb(25,39,228)" stroke-width="1" opacity="0.5372549019607843" d="M 708.5 562 L 709 565.5 L 708 565.5 L 708.5 562 Z " /><path fill="rgb(25,39,228)" stroke="rgb(25,39,228)" stroke-width="1" opacity="0.5372549019607843" d="M 775.5 562 L 776 565.5 L 775 565.5 L 775.5 562 Z " /><path fill="rgb(25,39,228)" stroke="rgb(25,39,228)" stroke-width="1" opacity="0.5372549019607843" d="M 842.5 562 L 843 567.5 L 842 567.5 L 842.5 562 Z " /><path fill="rgb(25,39,228)" stroke="rgb(25,39,228)" stroke-width="1" opacity="0.5372549019607843" d="M 944.5 562 L 945 567.5 L 944 567.5 L 944.5 562 Z " /><path fill="rgb(25,39,228)" stroke="rgb(25,39,228)" stroke-width="1" opacity="0.5372549019607843" d="M 709.5 567 Q 712.8 579.7 722.5 586 Q 728.5 590.5 738 591.5 L 733.5 592 Q 723.5 588.6 717 583 L 709 569.5 L 709.5 567 Z " /><path fill="rgb(25,39,228)" stroke="rgb(25,39,228)" stroke-width="1" opacity="0.5372549019607843" d="M 774.5 567 L 775 569.5 L 767 583 L 761.5 587 L 751.5 591 L 751.5 590 Q 764.1 587.1 770 577.5 L 774.5 567 Z " /><path fill="rgb(25,39,228)" stroke="rgb(25,39,228)" stroke-width="1" opacity="0.5372549019607843" d="M 541.5 569 Q 546.1 587.9 559.5 598 L 576 606.5 L 574.5 607 Q 559.1 601.4 550 589.5 Q 542.3 581.4 541.5 569 Z " /><path fill="rgb(25,39,228)" stroke="rgb(25,39,228)" stroke-width="1" opacity="0.5372549019607843" d="M 641.5 569 L 642 571.5 L 641 571.5 L 641.5 569 Z " /><path fill="rgb(25,39,228)" stroke="rgb(25,39,228)" stroke-width="1" opacity="0.5372549019607843" d="M 843.5 569 Q 848.1 587.9 861.5 598 L 878 606.5 L 876.5 607 Q 861.1 601.4 852 589.5 Q 844.3 581.4 843.5 569 Z " /><path fill="rgb(25,39,228)" stroke="rgb(25,39,228)" stroke-width="1" opacity="0.5372549019607843" d="M 943.5 569 L 944 571.5 L 943 571.5 L 943.5 569 Z " /><path fill="rgb(25,39,228)" stroke="rgb(25,39,228)" stroke-width="1" opacity="0.5372549019607843" d="M 370.5 573 L 371 576.5 L 370 576.5 L 370.5 573 Z " /><path fill="rgb(25,39,228)" stroke="rgb(25,39,228)" stroke-width="1" opacity="0.5372549019607843" d="M 433.5 573 L 434 576.5 L 433 576.5 L 433.5 573 Z " /><path fill="rgb(25,39,228)" stroke="rgb(25,39,228)" stroke-width="1" opacity="0.5372549019607843" d="M 640.5 573 L 641 574.5 Q 635.4 589.9 623.5 599 L 607.5 607 L 607.5 606 Q 623.2 601.2 632 589.5 L 640.5 573 Z " /><path fill="rgb(25,39,228)" stroke="rgb(25,39,228)" stroke-width="1" opacity="0.5372549019607843" d="M 942.5 573 L 943 574.5 Q 937.4 589.9 925.5 599 L 909.5 607 L 909.5 606 Q 925.2 601.2 934 589.5 L 942.5 573 Z " /><path fill="rgb(25,39,228)" stroke="rgb(25,39,228)" stroke-width="1" opacity="0.5372549019607843" d="M 1066.5 573 L 1067 576.5 L 1066 576.5 L 1066.5 573 Z " /><path fill="rgb(25,39,228)" stroke="rgb(25,39,228)" stroke-width="1" opacity="0.5372549019607843" d="M 1128.5 573 L 1129 576.5 L 1128 576.5 L 1128.5 573 Z " /><path fill="rgb(25,39,228)" stroke="rgb(25,39,228)" stroke-width="1" opacity="0.5372549019607843" d="M 370.5 585 L 371 588.5 L 370 588.5 L 370.5 585 Z " /><path fill="rgb(25,39,228)" stroke="rgb(25,39,228)" stroke-width="1" opacity="0.5372549019607843" d="M 433.5 585 L 434 588.5 L 433 588.5 L 433.5 585 Z " /><path fill="rgb(25,39,228)" stroke="rgb(25,39,228)" stroke-width="1" opacity="0.5372549019607843" d="M 1066.5 585 L 1067 588.5 L 1066 588.5 L 1066.5 585 Z " /><path fill="rgb(25,39,228)" stroke="rgb(25,39,228)" stroke-width="1" opacity="0.5372549019607843" d="M 1128.5 585 L 1129 588.5 L 1128 588.5 L 1128.5 585 Z " /><path fill="rgb(25,39,228)" stroke="rgb(25,39,228)" stroke-width="1" opacity="0.5372549019607843" d="M 371.5 590 Q 374.9 601.1 383.5 607 L 390 610.5 L 388.5 611 L 377 602.5 L 371 592.5 L 371.5 590 Z " /><path fill="rgb(25,39,228)" stroke="rgb(25,39,228)" stroke-width="1" opacity="0.5372549019607843" d="M 432.5 590 L 433 592.5 Q 429.8 600.8 423.5 606 L 414.5 611 L 414.5 610 L 419.5 608 L 429 598.5 L 432.5 590 Z " /><path fill="rgb(25,39,228)" stroke="rgb(25,39,228)" stroke-width="1" opacity="0.5372549019607843" d="M 1067.5 590 L 1071 598.5 L 1075 604 L 1086.5 611 L 1094 612.5 L 1089.5 613 Q 1078.4 609.6 1072 601.5 L 1067 592.5 L 1067.5 590 Z " /><path fill="rgb(25,39,228)" stroke="rgb(25,39,228)" stroke-width="1" opacity="0.5372549019607843" d="M 1127.5 590 L 1128 592.5 Q 1124.5 601.5 1117.5 607 Q 1112.1 612.6 1101.5 613 L 1101.5 612 L 1108.5 611 L 1120 603.5 Q 1125.4 598.4 1127.5 590 Z " /><path fill="rgb(25,39,228)" stroke="rgb(25,39,228)" stroke-width="1" opacity="0.5372549019607843" d="M 746.5 591 L 750 591.5 L 746.5 592 L 746.5 591 Z " /><path fill="rgb(25,39,228)" stroke="rgb(25,39,228)" stroke-width="1" opacity="0.5372549019607843" d="M 577.5 607 L 580 607.5 L 577.5 608 L 577.5 607 Z " /><path fill="rgb(25,39,228)" stroke="rgb(25,39,228)" stroke-width="1" opacity="0.5372549019607843" d="M 603.5 607 L 606 607.5 L 603.5 608 L 603.5 607 Z " /><path fill="rgb(25,39,228)" stroke="rgb(25,39,228)" stroke-width="1" opacity="0.5372549019607843" d="M 879.5 607 L 882 607.5 L 879.5 608 L 879.5 607 Z " /><path fill="rgb(25,39,228)" stroke="rgb(25,39,228)" stroke-width="1" opacity="0.5372549019607843" d="M 905.5 607 L 908 607.5 L 905.5 608 L 905.5 607 Z " /><path fill="rgb(25,39,228)" stroke="rgb(25,39,228)" stroke-width="1" opacity="0.5372549019607843" d="M 581.5 608 L 587 608.5 L 581.5 609 L 581.5 608 Z " /><path fill="rgb(25,39,228)" stroke="rgb(25,39,228)" stroke-width="1" opacity="0.5372549019607843" d="M 596.5 608 L 602 608.5 L 596.5 609 L 596.5 608 Z " /><path fill="rgb(25,39,228)" stroke="rgb(25,39,228)" stroke-width="1" opacity="0.5372549019607843" d="M 883.5 608 L 889 608.5 L 883.5 609 L 883.5 608 Z " /><path fill="rgb(25,39,228)" stroke="rgb(25,39,228)" stroke-width="1" opacity="0.5372549019607843" d="M 898.5 608 L 904 608.5 L 898.5 609 L 898.5 608 Z " /><path fill="rgb(25,39,228)" stroke="rgb(25,39,228)" stroke-width="1" opacity="0.5372549019607843" d="M 394.5 612 L 398 612.5 L 394.5 613 L 394.5 612 Z " /><path fill="rgb(25,39,228)" stroke="rgb(25,39,228)" stroke-width="1" opacity="0.5372549019607843" d="M 406.5 612 L 410 612.5 L 406.5 613 L 406.5 612 Z " /><path fill="rgb(25,39,228)" stroke="rgb(25,39,228)" stroke-width="1" opacity="0.5372549019607843" d="M 581.5 692 L 587 692.5 L 581.5 693 L 581.5 692 Z " /><path fill="rgb(25,39,228)" stroke="rgb(25,39,228)" stroke-width="1" opacity="0.5372549019607843" d="M 596.5 692 L 602 692.5 L 596.5 693 L 596.5 692 Z " /><path fill="rgb(25,39,228)" stroke="rgb(25,39,228)" stroke-width="1" opacity="0.5372549019607843" d="M 729.5 692 L 735 692.5 L 729.5 693 L 729.5 692 Z " /><path fill="rgb(25,39,228)" stroke="rgb(25,39,228)" stroke-width="1" opacity="0.5372549019607843" d="M 744.5 692 L 750 692.5 L 744.5 693 L 744.5 692 Z " /><path fill="rgb(25,39,228)" stroke="rgb(25,39,228)" stroke-width="1" opacity="0.5372549019607843" d="M 577.5 693 L 580 693.5 L 577.5 694 L 577.5 693 Z " /><path fill="rgb(25,39,228)" stroke="rgb(25,39,228)" stroke-width="1" opacity="0.5372549019607843" d="M 603.5 693 L 606 693.5 L 603.5 694 L 603.5 693 Z " /><path fill="rgb(25,39,228)" stroke="rgb(25,39,228)" stroke-width="1" opacity="0.5372549019607843" d="M 725.5 693 L 728 693.5 L 725.5 694 L 725.5 693 Z " /><path fill="rgb(25,39,228)" stroke="rgb(25,39,228)" stroke-width="1" opacity="0.5372549019607843" d="M 751.5 693 L 754 693.5 L 751.5 694 L 751.5 693 Z " /><path fill="rgb(25,39,228)" stroke="rgb(25,39,228)" stroke-width="1" opacity="0.5372549019607843" d="M 882.5 693 L 888 693.5 L 882.5 694 L 882.5 693 Z " /><path fill="rgb(25,39,228)" stroke="rgb(25,39,228)" stroke-width="1" opacity="0.5372549019607843" d="M 897.5 693 L 903 693.5 L 897.5 694 L 897.5 693 Z " /><path fill="rgb(25,39,228)" stroke="rgb(25,39,228)" stroke-width="1" opacity="0.5372549019607843" d="M 574.5 694 L 576 694.5 Q 560.1 699.6 551 711.5 Q 544.1 719.6 541.5 732 L 541 729.5 Q 546.4 711.9 559.5 702 L 574.5 694 Z " /><path fill="rgb(25,39,228)" stroke="rgb(25,39,228)" stroke-width="1" opacity="0.5372549019607843" d="M 607.5 694 Q 623.8 699.2 633 711.5 L 641 727.5 L 640 727.5 Q 635.2 711.8 623.5 703 L 607.5 695 L 607.5 694 Z " /><path fill="rgb(25,39,228)" stroke="rgb(25,39,228)" stroke-width="1" opacity="0.5372549019607843" d="M 722.5 694 L 724 694.5 Q 708.1 699.6 699 711.5 Q 692.1 719.6 689.5 732 L 689 729.5 Q 694.4 711.9 707.5 702 L 722.5 694 Z " /><path fill="rgb(25,39,228)" stroke="rgb(25,39,228)" stroke-width="1" opacity="0.5372549019607843" d="M 755.5 694 Q 771.8 699.2 781 711.5 L 789 727.5 L 788 727.5 Q 783.2 711.8 771.5 703 L 755.5 695 L 755.5 694 Z " /><path fill="rgb(25,39,228)" stroke="rgb(25,39,228)" stroke-width="1" opacity="0.5372549019607843" d="M 878.5 694 L 881 694.5 L 878.5 695 L 878.5 694 Z " /><path fill="rgb(25,39,228)" stroke="rgb(25,39,228)" stroke-width="1" opacity="0.5372549019607843" d="M 904.5 694 L 907 694.5 L 904.5 695 L 904.5 694 Z " /><path fill="rgb(25,39,228)" stroke="rgb(25,39,228)" stroke-width="1" opacity="0.5372549019607843" d="M 875.5 695 L 877 695.5 Q 861.1 700.6 852 712.5 Q 845.1 720.6 842.5 733 L 842 730.5 Q 847.4 712.9 860.5 703 L 875.5 695 Z " /><path fill="rgb(25,39,228)" stroke="rgb(25,39,228)" stroke-width="1" opacity="0.5372549019607843" d="M 908.5 695 Q 924.8 700.2 934 712.5 L 942 728.5 L 941 728.5 Q 936.2 712.8 924.5 704 L 908.5 696 L 908.5 695 Z " /><path fill="rgb(25,39,228)" stroke="rgb(25,39,228)" stroke-width="1" opacity="0.5372549019607843" d="M 355.5 717 L 358 717.5 L 355.5 718 L 355.5 717 Z " /><path fill="rgb(25,39,228)" stroke="rgb(25,39,228)" stroke-width="1" opacity="0.5372549019607843" d="M 367.5 717 L 370 717.5 L 367.5 718 L 367.5 717 Z " /><path fill="rgb(25,39,228)" stroke="rgb(25,39,228)" stroke-width="1" opacity="0.5372549019607843" d="M 1112.5 717 L 1116 717.5 L 1112.5 718 L 1112.5 717 Z " /><path fill="rgb(25,39,228)" stroke="rgb(25,39,228)" stroke-width="1" opacity="0.5372549019607843" d="M 1123.5 717 L 1127 717.5 L 1123.5 718 L 1123.5 717 Z " /><path fill="rgb(25,39,228)" stroke="rgb(25,39,228)" stroke-width="1" opacity="0.5372549019607843" d="M 351.5 718 L 354 718.5 Q 342.5 721.5 337 730.5 L 333.5 738 L 333 736.5 L 340 725 L 351.5 718 Z " /><path fill="rgb(25,39,228)" stroke="rgb(25,39,228)" stroke-width="1" opacity="0.5372549019607843" d="M 371.5 718 Q 380.9 720.1 386 726.5 Q 392.2 731.8 393 742.5 L 392 742.5 Q 389.9 728.1 379.5 722 L 371.5 719 L 371.5 718 Z " /><path fill="rgb(25,39,228)" stroke="rgb(25,39,228)" stroke-width="1" opacity="0.5372549019607843" d="M 1108.5 718 L 1111 718.5 Q 1099.5 721.5 1094 730.5 L 1090.5 739 L 1090 736.5 L 1097 725 L 1108.5 718 Z " /><path fill="rgb(25,39,228)" stroke="rgb(25,39,228)" stroke-width="1" opacity="0.5372549019607843" d="M 1128.5 718 Q 1137.9 720.1 1143 726.5 Q 1149.5 732 1150 743.5 L 1149 743.5 Q 1147.3 728.3 1136.5 722 L 1128.5 719 L 1128.5 718 Z " /><path fill="rgb(25,39,228)" stroke="rgb(25,39,228)" stroke-width="1" opacity="0.5372549019607843" d="M 641.5 729 L 642 731.5 L 641 731.5 L 641.5 729 Z " /><path fill="rgb(25,39,228)" stroke="rgb(25,39,228)" stroke-width="1" opacity="0.5372549019607843" d="M 789.5 729 L 790 731.5 L 789 731.5 L 789.5 729 Z " /><path fill="rgb(25,39,228)" stroke="rgb(25,39,228)" stroke-width="1" opacity="0.5372549019607843" d="M 942.5 730 L 943 732.5 L 942 732.5 L 942.5 730 Z " /><path fill="rgb(25,39,228)" stroke="rgb(25,39,228)" stroke-width="1" opacity="0.5372549019607843" d="M 540.5 733 L 541 738.5 L 540 738.5 L 540.5 733 Z " /><path fill="rgb(25,39,228)" stroke="rgb(25,39,228)" stroke-width="1" opacity="0.5372549019607843" d="M 642.5 733 L 643 738.5 L 642 738.5 L 642.5 733 Z " /><path fill="rgb(25,39,228)" stroke="rgb(25,39,228)" stroke-width="1" opacity="0.5372549019607843" d="M 688.5 733 L 689 738.5 L 688 738.5 L 688.5 733 Z " /><path fill="rgb(25,39,228)" stroke="rgb(25,39,228)" stroke-width="1" opacity="0.5372549019607843" d="M 790.5 733 L 791 738.5 L 790 738.5 L 790.5 733 Z " /><path fill="rgb(25,39,228)" stroke="rgb(25,39,228)" stroke-width="1" opacity="0.5372549019607843" d="M 841.5 734 L 842 739.5 L 841 739.5 L 841.5 734 Z " /><path fill="rgb(25,39,228)" stroke="rgb(25,39,228)" stroke-width="1" opacity="0.5372549019607843" d="M 943.5 734 L 944 739.5 L 943 739.5 L 943.5 734 Z " /><path fill="rgb(25,39,228)" stroke="rgb(25,39,228)" stroke-width="1" opacity="0.5372549019607843" d="M 332.5 740 L 333 742.5 L 332 742.5 L 332.5 740 Z " /><path fill="rgb(25,39,228)" stroke="rgb(25,39,228)" stroke-width="1" opacity="0.5372549019607843" d="M 1089.5 740 L 1090 743.5 L 1089 743.5 L 1089.5 740 Z " /><path fill="rgb(25,39,228)" stroke="rgb(25,39,228)" stroke-width="1" opacity="0.5372549019607843" d="M 540.5 748 L 541 753.5 L 540 753.5 L 540.5 748 Z " /><path fill="rgb(25,39,228)" stroke="rgb(25,39,228)" stroke-width="1" opacity="0.5372549019607843" d="M 642.5 748 L 643 753.5 L 642 753.5 L 642.5 748 Z " /><path fill="rgb(25,39,228)" stroke="rgb(25,39,228)" stroke-width="1" opacity="0.5372549019607843" d="M 688.5 748 L 689 753.5 L 688 753.5 L 688.5 748 Z " /><path fill="rgb(25,39,228)" stroke="rgb(25,39,228)" stroke-width="1" opacity="0.5372549019607843" d="M 790.5 748 L 791 753.5 L 790 753.5 L 790.5 748 Z " /><path fill="rgb(25,39,228)" stroke="rgb(25,39,228)" stroke-width="1" opacity="0.5372549019607843" d="M 841.5 749 L 842 754.5 L 841 754.5 L 841.5 749 Z " /><path fill="rgb(25,39,228)" stroke="rgb(25,39,228)" stroke-width="1" opacity="0.5372549019607843" d="M 943.5 749 L 944 754.5 L 943 754.5 L 943.5 749 Z " /><path fill="rgb(25,39,228)" stroke="rgb(25,39,228)" stroke-width="1" opacity="0.5372549019607843" d="M 1089.5 751 L 1090 754.5 L 1089 754.5 L 1089.5 751 Z " /><path fill="rgb(25,39,228)" stroke="rgb(25,39,228)" stroke-width="1" opacity="0.5372549019607843" d="M 1149.5 751 L 1150 755.5 L 1142 770 L 1136.5 774 L 1128.5 777 L 1128.5 776 Q 1139.9 773.4 1145 764.5 Q 1148.8 759.3 1149.5 751 Z " /><path fill="rgb(25,39,228)" stroke="rgb(25,39,228)" stroke-width="1" opacity="0.5372549019607843" d="M 332.5 752 L 333 754.5 L 332 754.5 L 332.5 752 Z " /><path fill="rgb(25,39,228)" stroke="rgb(25,39,228)" stroke-width="1" opacity="0.5372549019607843" d="M 392.5 752 L 393 755.5 L 392 755.5 L 392.5 752 Z " /><path fill="rgb(25,39,228)" stroke="rgb(25,39,228)" stroke-width="1" opacity="0.5372549019607843" d="M 541.5 755 Q 546.1 773.9 559.5 784 L 576 792.5 L 574.5 793 Q 559.1 787.4 550 775.5 Q 542.3 767.4 541.5 755 Z " /><path fill="rgb(25,39,228)" stroke="rgb(25,39,228)" stroke-width="1" opacity="0.5372549019607843" d="M 641.5 755 L 642 757.5 L 641 757.5 L 641.5 755 Z " /><path fill="rgb(25,39,228)" stroke="rgb(25,39,228)" stroke-width="1" opacity="0.5372549019607843" d="M 689.5 755 Q 694.1 773.9 707.5 784 L 724 792.5 L 722.5 793 Q 707.1 787.4 698 775.5 Q 690.3 767.4 689.5 755 Z " /><path fill="rgb(25,39,228)" stroke="rgb(25,39,228)" stroke-width="1" opacity="0.5372549019607843" d="M 789.5 755 L 790 757.5 L 789 757.5 L 789.5 755 Z " /><path fill="rgb(25,39,228)" stroke="rgb(25,39,228)" stroke-width="1" opacity="0.5372549019607843" d="M 842.5 756 Q 847.1 774.9 860.5 785 L 877 793.5 L 875.5 794 Q 860.1 788.4 851 776.5 Q 843.3 768.4 842.5 756 Z " /><path fill="rgb(25,39,228)" stroke="rgb(25,39,228)" stroke-width="1" opacity="0.5372549019607843" d="M 942.5 756 L 943 758.5 L 942 758.5 L 942.5 756 Z " /><path fill="rgb(25,39,228)" stroke="rgb(25,39,228)" stroke-width="1" opacity="0.5372549019607843" d="M 1090.5 756 Q 1093.5 767.5 1102.5 773 L 1111 776.5 L 1108.5 777 L 1097 770 L 1090 758.5 L 1090.5 756 Z " /><path fill="rgb(25,39,228)" stroke="rgb(25,39,228)" stroke-width="1" opacity="0.5372549019607843" d="M 333.5 757 Q 337 767.5 345.5 773 L 353 776.5 L 351.5 777 L 340 770 L 333 758.5 L 333.5 757 Z " /><path fill="rgb(25,39,228)" stroke="rgb(25,39,228)" stroke-width="1" opacity="0.5372549019607843" d="M 391.5 757 L 392 758.5 L 385 770 L 372.5 777 L 372.5 776 Q 382.9 772.9 388 764.5 L 391.5 757 Z " /><path fill="rgb(25,39,228)" stroke="rgb(25,39,228)" stroke-width="1" opacity="0.5372549019607843" d="M 640.5 759 L 641 760.5 Q 635.4 775.9 623.5 785 L 607.5 793 L 607.5 792 Q 623.2 787.2 632 775.5 L 640.5 759 Z " /><path fill="rgb(25,39,228)" stroke="rgb(25,39,228)" stroke-width="1" opacity="0.5372549019607843" d="M 788.5 759 L 789 760.5 Q 783.4 775.9 771.5 785 L 755.5 793 L 755.5 792 Q 771.2 787.2 780 775.5 L 788.5 759 Z " /><path fill="rgb(25,39,228)" stroke="rgb(25,39,228)" stroke-width="1" opacity="0.5372549019607843" d="M 941.5 760 L 942 761.5 Q 936.4 776.9 924.5 786 L 908.5 794 L 908.5 793 Q 924.2 788.2 933 776.5 L 941.5 760 Z " /><path fill="rgb(25,39,228)" stroke="rgb(25,39,228)" stroke-width="1" opacity="0.5372549019607843" d="M 355.5 777 L 358 777.5 L 355.5 778 L 355.5 777 Z " /><path fill="rgb(25,39,228)" stroke="rgb(25,39,228)" stroke-width="1" opacity="0.5372549019607843" d="M 367.5 777 L 370 777.5 L 367.5 778 L 367.5 777 Z " /><path fill="rgb(25,39,228)" stroke="rgb(25,39,228)" stroke-width="1" opacity="0.5372549019607843" d="M 1112.5 777 L 1116 777.5 L 1112.5 778 L 1112.5 777 Z " /><path fill="rgb(25,39,228)" stroke="rgb(25,39,228)" stroke-width="1" opacity="0.5372549019607843" d="M 1123.5 777 L 1127 777.5 L 1123.5 778 L 1123.5 777 Z " /><path fill="rgb(25,39,228)" stroke="rgb(25,39,228)" stroke-width="1" opacity="0.5372549019607843" d="M 577.5 793 L 580 793.5 L 577.5 794 L 577.5 793 Z " /><path fill="rgb(25,39,228)" stroke="rgb(25,39,228)" stroke-width="1" opacity="0.5372549019607843" d="M 603.5 793 L 606 793.5 L 603.5 794 L 603.5 793 Z " /><path fill="rgb(25,39,228)" stroke="rgb(25,39,228)" stroke-width="1" opacity="0.5372549019607843" d="M 725.5 793 L 728 793.5 L 725.5 794 L 725.5 793 Z " /><path fill="rgb(25,39,228)" stroke="rgb(25,39,228)" stroke-width="1" opacity="0.5372549019607843" d="M 751.5 793 L 754 793.5 L 751.5 794 L 751.5 793 Z " /><path fill="rgb(25,39,228)" stroke="rgb(25,39,228)" stroke-width="1" opacity="0.5372549019607843" d="M 581.5 794 L 587 794.5 L 581.5 795 L 581.5 794 Z " /><path fill="rgb(25,39,228)" stroke="rgb(25,39,228)" stroke-width="1" opacity="0.5372549019607843" d="M 596.5 794 L 602 794.5 L 596.5 795 L 596.5 794 Z " /><path fill="rgb(25,39,228)" stroke="rgb(25,39,228)" stroke-width="1" opacity="0.5372549019607843" d="M 729.5 794 L 735 794.5 L 729.5 795 L 729.5 794 Z " /><path fill="rgb(25,39,228)" stroke="rgb(25,39,228)" stroke-width="1" opacity="0.5372549019607843" d="M 744.5 794 L 750 794.5 L 744.5 795 L 744.5 794 Z " /><path fill="rgb(25,39,228)" stroke="rgb(25,39,228)" stroke-width="1" opacity="0.5372549019607843" d="M 878.5 794 L 881 794.5 L 878.5 795 L 878.5 794 Z " /><path fill="rgb(25,39,228)" stroke="rgb(25,39,228)" stroke-width="1" opacity="0.5372549019607843" d="M 904.5 794 L 907 794.5 L 904.5 795 L 904.5 794 Z " /><path fill="rgb(25,39,228)" stroke="rgb(25,39,228)" stroke-width="1" opacity="0.5372549019607843" d="M 882.5 795 L 888 795.5 L 882.5 796 L 882.5 795 Z " /><path fill="rgb(25,39,228)" stroke="rgb(25,39,228)" stroke-width="1" opacity="0.5372549019607843" d="M 897.5 795 L 903 795.5 L 897.5 796 L 897.5 795 Z " /><path fill="rgb(25,39,228)" stroke="rgb(25,39,228)" stroke-width="1" opacity="0.5372549019607843" d="M 581.5 881 L 586 881.5 L 581.5 882 L 581.5 881 Z " /><path fill="rgb(25,39,228)" stroke="rgb(25,39,228)" stroke-width="1" opacity="0.5372549019607843" d="M 597.5 881 L 602 881.5 L 597.5 882 L 597.5 881 Z " /><path fill="rgb(25,39,228)" stroke="rgb(25,39,228)" stroke-width="1" opacity="0.5372549019607843" d="M 883.5 881 L 889 881.5 L 883.5 882 L 883.5 881 Z " /><path fill="rgb(25,39,228)" stroke="rgb(25,39,228)" stroke-width="1" opacity="0.5372549019607843" d="M 898.5 881 L 904 881.5 L 898.5 882 L 898.5 881 Z " /><path fill="rgb(25,39,228)" stroke="rgb(25,39,228)" stroke-width="1" opacity="0.5372549019607843" d="M 397.5 882 L 400 882.5 L 397.5 883 L 397.5 882 Z " /><path fill="rgb(25,39,228)" stroke="rgb(25,39,228)" stroke-width="1" opacity="0.5372549019607843" d="M 410.5 882 L 413 882.5 L 410.5 883 L 410.5 882 Z " /><path fill="rgb(25,39,228)" stroke="rgb(25,39,228)" stroke-width="1" opacity="0.5372549019607843" d="M 577.5 882 L 580 882.5 L 577.5 883 L 577.5 882 Z " /><path fill="rgb(25,39,228)" stroke="rgb(25,39,228)" stroke-width="1" opacity="0.5372549019607843" d="M 603.5 882 L 606 882.5 L 603.5 883 L 603.5 882 Z " /><path fill="rgb(25,39,228)" stroke="rgb(25,39,228)" stroke-width="1" opacity="0.5372549019607843" d="M 879.5 882 L 882 882.5 L 879.5 883 L 879.5 882 Z " /><path fill="rgb(25,39,228)" stroke="rgb(25,39,228)" stroke-width="1" opacity="0.5372549019607843" d="M 905.5 882 L 908 882.5 L 905.5 883 L 905.5 882 Z " /><path fill="rgb(25,39,228)" stroke="rgb(25,39,228)" stroke-width="1" opacity="0.5372549019607843" d="M 1094.5 882 L 1098 882.5 L 1094.5 883 L 1094.5 882 Z " /><path fill="rgb(25,39,228)" stroke="rgb(25,39,228)" stroke-width="1" opacity="0.5372549019607843" d="M 1105.5 882 L 1109 882.5 L 1105.5 883 L 1105.5 882 Z " /><path fill="rgb(25,39,228)" stroke="rgb(25,39,228)" stroke-width="1" opacity="0.5372549019607843" d="M 876.5 883 L 878 883.5 Q 862.1 888.6 853 900.5 Q 846.1 908.6 843.5 921 L 843 918.5 Q 848.4 900.9 861.5 891 L 876.5 883 Z " /><path fill="rgb(25,39,228)" stroke="rgb(25,39,228)" stroke-width="1" opacity="0.5372549019607843" d="M 909.5 883 Q 925.8 888.2 935 900.5 L 943 916.5 L 942 916.5 Q 937.2 900.8 925.5 892 L 909.5 884 L 909.5 883 Z " /><path fill="rgb(25,39,228)" stroke="rgb(25,39,228)" stroke-width="1" opacity="0.5372549019607843" d="M 1090.5 883 L 1093 883.5 Q 1081.5 886.5 1076 895.5 L 1072.5 904 L 1072 901.5 L 1079 890 L 1090.5 883 Z " /><path fill="rgb(25,39,228)" stroke="rgb(25,39,228)" stroke-width="1" opacity="0.5372549019607843" d="M 1110.5 883 Q 1119.9 885.1 1125 891.5 Q 1131.5 897 1132 908.5 L 1131 908.5 Q 1129.3 893.3 1118.5 887 L 1110.5 884 L 1110.5 883 Z " /><path fill="rgb(25,39,228)" stroke="rgb(25,39,228)" stroke-width="1" opacity="0.5372549019607843" d="M 391.5 884 L 393 884.5 L 381 892.5 L 374.5 905 L 374 902.5 Q 377.2 894.2 383.5 889 L 391.5 884 Z " /><path fill="rgb(25,39,228)" stroke="rgb(25,39,228)" stroke-width="1" opacity="0.5372549019607843" d="M 417.5 884 Q 425.6 886.4 430 892.5 L 436 904.5 L 435 904.5 Q 432.9 895.1 426.5 890 L 417.5 885 L 417.5 884 Z " /><path fill="rgb(25,39,228)" stroke="rgb(25,39,228)" stroke-width="1" opacity="0.5372549019607843" d="M 571.5 884 L 573 884.5 Q 559.3 889.8 551 900.5 L 548.5 904 L 550 901.5 L 559.5 891 L 571.5 884 Z " /><path fill="rgb(25,39,228)" stroke="rgb(25,39,228)" stroke-width="1" opacity="0.5372549019607843" d="M 610.5 884 Q 624.7 889.3 633 900.5 L 640 913.5 L 639 913.5 Q 634 900 623.5 892 L 610.5 885 L 610.5 884 Z " /><path fill="rgb(25,39,228)" stroke="rgb(25,39,228)" stroke-width="1" opacity="0.5372549019607843" d="M 738.5 901 L 743 901.5 Q 726.5 904 719 915.5 L 714.5 926 L 714 923.5 L 722 910 Q 728.5 904.4 738.5 901 Z " /><path fill="rgb(25,39,228)" stroke="rgb(25,39,228)" stroke-width="1" opacity="0.5372549019607843" d="M 751.5 901 L 755 901.5 L 751.5 902 L 751.5 901 Z " /><path fill="rgb(25,39,228)" stroke="rgb(25,39,228)" stroke-width="1" opacity="0.5372549019607843" d="M 756.5 902 L 766.5 906 L 772 910 L 776 915.5 L 780 925.5 L 779 925.5 Q 776.1 912.9 766.5 907 L 756.5 903 L 756.5 902 Z " /><path fill="rgb(25,39,228)" stroke="rgb(25,39,228)" stroke-width="1" opacity="0.5372549019607843" d="M 547.5 905 L 547 906.5 L 543.5 914 L 543 912.5 L 547.5 905 Z " /><path fill="rgb(25,39,228)" stroke="rgb(25,39,228)" stroke-width="1" opacity="0.5372549019607843" d="M 1071.5 905 L 1072 908.5 L 1071 908.5 L 1071.5 905 Z " /><path fill="rgb(25,39,228)" stroke="rgb(25,39,228)" stroke-width="1" opacity="0.5372549019607843" d="M 373.5 906 L 374 908.5 L 373 908.5 L 373.5 906 Z " /><path fill="rgb(25,39,228)" stroke="rgb(25,39,228)" stroke-width="1" opacity="0.5372549019607843" d="M 436.5 906 L 437 908.5 L 436 908.5 L 436.5 906 Z " /><path fill="rgb(25,39,228)" stroke="rgb(25,39,228)" stroke-width="1" opacity="0.5372549019607843" d="M 1071.5 916 L 1072 919.5 L 1071 919.5 L 1071.5 916 Z " /><path fill="rgb(25,39,228)" stroke="rgb(25,39,228)" stroke-width="1" opacity="0.5372549019607843" d="M 1131.5 916 L 1132 920.5 L 1124 935 L 1118.5 939 L 1110.5 942 L 1110.5 941 Q 1121.9 938.4 1127 929.5 Q 1130.8 924.3 1131.5 916 Z " /><path fill="rgb(25,39,228)" stroke="rgb(25,39,228)" stroke-width="1" opacity="0.5372549019607843" d="M 541.5 918 L 542 920.5 L 541 920.5 L 541.5 918 Z " /><path fill="rgb(25,39,228)" stroke="rgb(25,39,228)" stroke-width="1" opacity="0.5372549019607843" d="M 641.5 918 L 642 920.5 L 641 920.5 L 641.5 918 Z " /><path fill="rgb(25,39,228)" stroke="rgb(25,39,228)" stroke-width="1" opacity="0.5372549019607843" d="M 943.5 918 L 944 920.5 L 943 920.5 L 943.5 918 Z " /><path fill="rgb(25,39,228)" stroke="rgb(25,39,228)" stroke-width="1" opacity="0.5372549019607843" d="M 373.5 919 L 374 921.5 L 373 921.5 L 373.5 919 Z " /><path fill="rgb(25,39,228)" stroke="rgb(25,39,228)" stroke-width="1" opacity="0.5372549019607843" d="M 436.5 919 L 437 921.5 L 436 921.5 L 436.5 919 Z " /><path fill="rgb(25,39,228)" stroke="rgb(25,39,228)" stroke-width="1" opacity="0.5372549019607843" d="M 1072.5 921 Q 1075.5 932.5 1084.5 938 L 1093 941.5 L 1090.5 942 L 1079 935 L 1072 923.5 L 1072.5 921 Z " /><path fill="rgb(25,39,228)" stroke="rgb(25,39,228)" stroke-width="1" opacity="0.5372549019607843" d="M 540.5 922 L 541 925.5 L 540 925.5 L 540.5 922 Z " /><path fill="rgb(25,39,228)" stroke="rgb(25,39,228)" stroke-width="1" opacity="0.5372549019607843" d="M 642.5 922 L 643 926.5 L 642 926.5 L 642.5 922 Z " /><path fill="rgb(25,39,228)" stroke="rgb(25,39,228)" stroke-width="1" opacity="0.5372549019607843" d="M 842.5 922 L 843 927.5 L 842 927.5 L 842.5 922 Z " /><path fill="rgb(25,39,228)" stroke="rgb(25,39,228)" stroke-width="1" opacity="0.5372549019607843" d="M 944.5 922 L 945 927.5 L 944 927.5 L 944.5 922 Z " /><path fill="rgb(25,39,228)" stroke="rgb(25,39,228)" stroke-width="1" opacity="0.5372549019607843" d="M 374.5 923 Q 377 932.5 383.5 938 L 393 943.5 L 391.5 944 L 380 935.5 L 374 925.5 L 374.5 923 Z " /><path fill="rgb(25,39,228)" stroke="rgb(25,39,228)" stroke-width="1" opacity="0.5372549019607843" d="M 435.5 923 L 436 925.5 Q 432.8 933.8 426.5 939 L 417.5 944 L 417.5 943 Q 424.9 940.9 429 935.5 L 435.5 923 Z " /><path fill="rgb(25,39,228)" stroke="rgb(25,39,228)" stroke-width="1" opacity="0.5372549019607843" d="M 713.5 927 L 714 930.5 L 713 930.5 L 713.5 927 Z " /><path fill="rgb(25,39,228)" stroke="rgb(25,39,228)" stroke-width="1" opacity="0.5372549019607843" d="M 780.5 927 L 781 930.5 L 780 930.5 L 780.5 927 Z " /><path fill="rgb(25,39,228)" stroke="rgb(25,39,228)" stroke-width="1" opacity="0.5372549019607843" d="M 842.5 937 L 843 942.5 L 842 942.5 L 842.5 937 Z " /><path fill="rgb(25,39,228)" stroke="rgb(25,39,228)" stroke-width="1" opacity="0.5372549019607843" d="M 944.5 937 L 945 942.5 L 944 942.5 L 944.5 937 Z " /><path fill="rgb(25,39,228)" stroke="rgb(25,39,228)" stroke-width="1" opacity="0.5372549019607843" d="M 642.5 938 L 643 942.5 L 642 942.5 L 642.5 938 Z " /><path fill="rgb(25,39,228)" stroke="rgb(25,39,228)" stroke-width="1" opacity="0.5372549019607843" d="M 540.5 939 L 541 942.5 L 540 942.5 L 540.5 939 Z " /><path fill="rgb(25,39,228)" stroke="rgb(25,39,228)" stroke-width="1" opacity="0.5372549019607843" d="M 713.5 939 L 714 942.5 L 713 942.5 L 713.5 939 Z " /><path fill="rgb(25,39,228)" stroke="rgb(25,39,228)" stroke-width="1" opacity="0.5372549019607843" d="M 780.5 939 L 781 942.5 L 780 942.5 L 780.5 939 Z " /><path fill="rgb(25,39,228)" stroke="rgb(25,39,228)" stroke-width="1" opacity="0.5372549019607843" d="M 1094.5 942 L 1098 942.5 L 1094.5 943 L 1094.5 942 Z " /><path fill="rgb(25,39,228)" stroke="rgb(25,39,228)" stroke-width="1" opacity="0.5372549019607843" d="M 1105.5 942 L 1109 942.5 L 1105.5 943 L 1105.5 942 Z " /><path fill="rgb(25,39,228)" stroke="rgb(25,39,228)" stroke-width="1" opacity="0.5372549019607843" d="M 541.5 944 L 542 946.5 L 541 946.5 L 541.5 944 Z " /><path fill="rgb(25,39,228)" stroke="rgb(25,39,228)" stroke-width="1" opacity="0.5372549019607843" d="M 641.5 944 L 642 946.5 L 641 946.5 L 641.5 944 Z " /><path fill="rgb(25,39,228)" stroke="rgb(25,39,228)" stroke-width="1" opacity="0.5372549019607843" d="M 714.5 944 Q 717.8 956.7 727.5 963 Q 733.5 967.5 743 968.5 L 738.5 969 Q 728.5 965.6 722 960 L 714 946.5 L 714.5 944 Z " /><path fill="rgb(25,39,228)" stroke="rgb(25,39,228)" stroke-width="1" opacity="0.5372549019607843" d="M 779.5 944 L 780 946.5 L 772 960 L 766.5 964 L 756.5 968 L 756.5 967 Q 769.1 964.1 775 954.5 L 779.5 944 Z " /><path fill="rgb(25,39,228)" stroke="rgb(25,39,228)" stroke-width="1" opacity="0.5372549019607843" d="M 843.5 944 Q 848.1 962.9 861.5 973 L 878 981.5 L 876.5 982 Q 861.1 976.4 852 964.5 Q 844.3 956.4 843.5 944 Z " /><path fill="rgb(25,39,228)" stroke="rgb(25,39,228)" stroke-width="1" opacity="0.5372549019607843" d="M 943.5 944 L 944 946.5 L 943 946.5 L 943.5 944 Z " /><path fill="rgb(25,39,228)" stroke="rgb(25,39,228)" stroke-width="1" opacity="0.5372549019607843" d="M 397.5 945 L 400 945.5 L 397.5 946 L 397.5 945 Z " /><path fill="rgb(25,39,228)" stroke="rgb(25,39,228)" stroke-width="1" opacity="0.5372549019607843" d="M 410.5 945 L 413 945.5 L 410.5 946 L 410.5 945 Z " /><path fill="rgb(25,39,228)" stroke="rgb(25,39,228)" stroke-width="1" opacity="0.5372549019607843" d="M 942.5 948 L 943 949.5 Q 937.4 964.9 925.5 974 L 909.5 982 L 909.5 981 Q 925.2 976.2 934 964.5 L 942.5 948 Z " /><path fill="rgb(25,39,228)" stroke="rgb(25,39,228)" stroke-width="1" opacity="0.5372549019607843" d="M 543.5 951 L 548 959.5 L 546 958.5 L 543.5 951 Z " /><path fill="rgb(25,39,228)" stroke="rgb(25,39,228)" stroke-width="1" opacity="0.5372549019607843" d="M 639.5 951 L 640 952.5 L 635.5 960 L 636 958.5 L 639.5 951 Z " /><path fill="rgb(25,39,228)" stroke="rgb(25,39,228)" stroke-width="1" opacity="0.5372549019607843" d="M 548.5 961 L 549.5 963 L 548.5 961 Z " /><path fill="rgb(25,39,228)" stroke="rgb(25,39,228)" stroke-width="1" opacity="0.5372549019607843" d="M 634.5 961 L 633 963.5 L 623.5 974 L 620.5 976 L 622.5 973 L 632 964.5 L 634.5 961 Z " /><path fill="rgb(25,39,228)" stroke="rgb(25,39,228)" stroke-width="1" opacity="0.5372549019607843" d="M 550.5 964 L 559.5 974 L 550.5 964 Z " /><path fill="rgb(25,39,228)" stroke="rgb(25,39,228)" stroke-width="1" opacity="0.5372549019607843" d="M 751.5 968 L 755 968.5 L 751.5 969 L 751.5 968 Z " /><path fill="rgb(25,39,228)" stroke="rgb(25,39,228)" stroke-width="1" opacity="0.5372549019607843" d="M 561.5 974 L 562.5 976 L 561.5 974 Z " /><path fill="rgb(25,39,228)" stroke="rgb(25,39,228)" stroke-width="1" opacity="0.5372549019607843" d="M 564.5 976 L 573 980.5 L 571.5 981 L 565.5 978 L 564.5 976 Z " /><path fill="rgb(25,39,228)" stroke="rgb(25,39,228)" stroke-width="1" opacity="0.5372549019607843" d="M 618.5 976 L 617.5 978 L 610.5 981 L 610.5 980 L 618.5 976 Z " /><path fill="rgb(25,39,228)" stroke="rgb(25,39,228)" stroke-width="1" opacity="0.5372549019607843" d="M 577.5 982 L 580 982.5 L 577.5 983 L 577.5 982 Z " /><path fill="rgb(25,39,228)" stroke="rgb(25,39,228)" stroke-width="1" opacity="0.5372549019607843" d="M 603.5 982 L 606 982.5 L 603.5 983 L 603.5 982 Z " /><path fill="rgb(25,39,228)" stroke="rgb(25,39,228)" stroke-width="1" opacity="0.5372549019607843" d="M 879.5 982 L 882 982.5 L 879.5 983 L 879.5 982 Z " /><path fill="rgb(25,39,228)" stroke="rgb(25,39,228)" stroke-width="1" opacity="0.5372549019607843" d="M 905.5 982 L 908 982.5 L 905.5 983 L 905.5 982 Z " /><path fill="rgb(25,39,228)" stroke="rgb(25,39,228)" stroke-width="1" opacity="0.5372549019607843" d="M 581.5 983 L 585 983.5 L 581.5 984 L 581.5 983 Z " /><path fill="rgb(25,39,228)" stroke="rgb(25,39,228)" stroke-width="1" opacity="0.5372549019607843" d="M 598.5 983 L 602 983.5 L 598.5 984 L 598.5 983 Z " /><path fill="rgb(25,39,228)" stroke="rgb(25,39,228)" stroke-width="1" opacity="0.5372549019607843" d="M 883.5 983 L 889 983.5 L 883.5 984 L 883.5 983 Z " /><path fill="rgb(25,39,228)" stroke="rgb(25,39,228)" stroke-width="1" opacity="0.5372549019607843" d="M 898.5 983 L 904 983.5 L 898.5 984 L 898.5 983 Z " /><path fill="rgb(25,39,228)" stroke="rgb(25,39,228)" stroke-width="1" opacity="0.5372549019607843" d="M 538.5 1047 L 541 1047.5 L 538.5 1048 L 538.5 1047 Z " /><path fill="rgb(25,39,228)" stroke="rgb(25,39,228)" stroke-width="1" opacity="0.5372549019607843" d="M 551.5 1047 L 554 1047.5 L 551.5 1048 L 551.5 1047 Z " /><path fill="rgb(25,39,228)" stroke="rgb(25,39,228)" stroke-width="1" opacity="0.5372549019607843" d="M 945.5 1047 L 950 1047.5 Q 935.4 1049.4 929 1059.5 L 924.5 1072 L 924 1068.5 Q 927.4 1056.9 936.5 1051 L 945.5 1047 Z " /><path fill="rgb(25,39,228)" stroke="rgb(25,39,228)" stroke-width="1" opacity="0.5372549019607843" d="M 957.5 1047 Q 971.9 1049.1 978 1059.5 Q 981.5 1064 982 1071.5 L 981 1071.5 Q 979.1 1057.9 969.5 1052 Q 965 1048.5 957.5 1048 L 957.5 1047 Z " /><path fill="rgb(25,39,228)" stroke="rgb(25,39,228)" stroke-width="1" opacity="0.5372549019607843" d="M 531.5 1050 L 530.5 1052 L 522 1059.5 L 520.5 1062 L 521 1060.5 L 529.5 1051 L 531.5 1050 Z " /><path fill="rgb(25,39,228)" stroke="rgb(25,39,228)" stroke-width="1" opacity="0.5372549019607843" d="M 560.5 1050 L 571 1059.5 L 572 1061.5 L 570 1060.5 L 562.5 1052 L 560.5 1050 Z " /><path fill="rgb(25,39,228)" stroke="rgb(25,39,228)" stroke-width="1" opacity="0.5372549019607843" d="M 517.5 1068 L 518 1070.5 L 517 1070.5 L 517.5 1068 Z " /><path fill="rgb(25,39,228)" stroke="rgb(25,39,228)" stroke-width="1" opacity="0.5372549019607843" d="M 574.5 1068 L 575 1070.5 L 574 1070.5 L 574.5 1068 Z " /><path fill="rgb(25,39,228)" stroke="rgb(25,39,228)" stroke-width="1" opacity="0.5372549019607843" d="M 924.5 1080 Q 926.7 1093.8 936.5 1100 L 949 1104.5 L 945.5 1105 Q 933.9 1101.6 928 1092.5 L 924 1083.5 L 924.5 1080 Z " /><path fill="rgb(25,39,228)" stroke="rgb(25,39,228)" stroke-width="1" opacity="0.5372549019607843" d="M 981.5 1080 L 982 1083.5 Q 978.6 1095.1 969.5 1101 Q 965 1104.5 957.5 1105 L 957.5 1104 Q 971.1 1102.1 977 1092.5 L 981.5 1080 Z " /><path fill="rgb(25,39,228)" stroke="rgb(25,39,228)" stroke-width="1" opacity="0.5372549019607843" d="M 517.5 1081 L 518 1083.5 L 517 1083.5 L 517.5 1081 Z " /><path fill="rgb(25,39,228)" stroke="rgb(25,39,228)" stroke-width="1" opacity="0.5372549019607843" d="M 574.5 1081 L 575 1083.5 L 574 1083.5 L 574.5 1081 Z " /><path fill="rgb(25,39,228)" stroke="rgb(25,39,228)" stroke-width="1" opacity="0.5372549019607843" d="M 520.5 1090 L 529.5 1100 L 532 1101.5 L 530.5 1101 L 521 1092.5 L 520.5 1090 Z " /><path fill="rgb(25,39,228)" stroke="rgb(25,39,228)" stroke-width="1" opacity="0.5372549019607843" d="M 571.5 1090 L 571 1091.5 L 562.5 1101 L 560.5 1102 L 561.5 1100 L 570 1092.5 L 571.5 1090 Z " /><path fill="rgb(25,39,228)" stroke="rgb(25,39,228)" stroke-width="1" opacity="0.5372549019607843" d="M 742.5 1095 L 746 1095.5 L 742.5 1096 L 742.5 1095 Z " /><path fill="rgb(25,39,228)" stroke="rgb(25,39,228)" stroke-width="1" opacity="0.5372549019607843" d="M 755.5 1095 L 759 1095.5 L 755.5 1096 L 755.5 1095 Z " /><path fill="rgb(25,39,228)" stroke="rgb(25,39,228)" stroke-width="1" opacity="0.5372549019607843" d="M 738.5 1096 L 741 1096.5 L 734.5 1099 L 734.5 1098 L 738.5 1096 Z " /><path fill="rgb(25,39,228)" stroke="rgb(25,39,228)" stroke-width="1" opacity="0.5372549019607843" d="M 760.5 1096 Q 771.8 1098.8 778 1106.5 L 783 1114.5 L 781 1113.5 L 780 1110.5 L 770.5 1101 L 760.5 1097 L 760.5 1096 Z " /><path fill="rgb(25,39,228)" stroke="rgb(25,39,228)" stroke-width="1" opacity="0.5372549019607843" d="M 732.5 1099 L 731.5 1101 L 725 1105 L 719.5 1113 L 720 1111.5 L 725.5 1104 L 732.5 1099 Z " /><path fill="rgb(25,39,228)" stroke="rgb(25,39,228)" stroke-width="1" opacity="0.5372549019607843" d="M 538.5 1104 L 541 1104.5 L 538.5 1105 L 538.5 1104 Z " /><path fill="rgb(25,39,228)" stroke="rgb(25,39,228)" stroke-width="1" opacity="0.5372549019607843" d="M 551.5 1104 L 554 1104.5 L 551.5 1105 L 551.5 1104 Z " /><path fill="rgb(25,39,228)" stroke="rgb(25,39,228)" stroke-width="1" opacity="0.5372549019607843" d="M 717.5 1116 L 718 1117.5 L 716.5 1121 L 716 1118.5 L 717.5 1116 Z " /><path fill="rgb(25,39,228)" stroke="rgb(25,39,228)" stroke-width="1" opacity="0.5372549019607843" d="M 783.5 1116 L 785 1120.5 L 784 1120.5 L 783.5 1116 Z " /><path fill="rgb(25,39,228)" stroke="rgb(25,39,228)" stroke-width="1" opacity="0.5372549019607843" d="M 715.5 1122 L 716 1124.5 L 715 1124.5 L 715.5 1122 Z " /><path fill="rgb(25,39,228)" stroke="rgb(25,39,228)" stroke-width="1" opacity="0.5372549019607843" d="M 785.5 1122 L 786 1125.5 L 785 1125.5 L 785.5 1122 Z " /><path fill="rgb(25,39,228)" stroke="rgb(25,39,228)" stroke-width="1" opacity="0.5372549019607843" d="M 785.5 1135 L 786 1138.5 L 785 1138.5 L 785.5 1135 Z " /><path fill="rgb(25,39,228)" stroke="rgb(25,39,228)" stroke-width="1" opacity="0.5372549019607843" d="M 715.5 1136 L 716 1138.5 L 715 1138.5 L 715.5 1136 Z " /><path fill="rgb(25,39,228)" stroke="rgb(25,39,228)" stroke-width="1" opacity="0.5372549019607843" d="M 716.5 1140 L 718 1144.5 L 717 1144.5 L 716.5 1140 Z " /><path fill="rgb(25,39,228)" stroke="rgb(25,39,228)" stroke-width="1" opacity="0.5372549019607843" d="M 784.5 1140 L 785 1142.5 L 783.5 1145 L 783 1143.5 L 784.5 1140 Z " /><path fill="rgb(25,39,228)" stroke="rgb(25,39,228)" stroke-width="1" opacity="0.5372549019607843" d="M 719.5 1148 L 726 1156.5 L 724 1155.5 L 719.5 1148 Z " /><path fill="rgb(25,39,228)" stroke="rgb(25,39,228)" stroke-width="1" opacity="0.5372549019607843" d="M 781.5 1148 L 781 1149.5 L 774.5 1158 L 768.5 1162 L 769.5 1160 L 777 1154.5 L 781.5 1148 Z " /><path fill="rgb(25,39,228)" stroke="rgb(25,39,228)" stroke-width="1" opacity="0.5372549019607843" d="M 727.5 1157 L 733 1161.5 L 731.5 1161 L 727.5 1157 Z " /><path fill="rgb(25,39,228)" stroke="rgb(25,39,228)" stroke-width="1" opacity="0.5372549019607843" d="M 736.5 1163 L 741 1164.5 L 738.5 1165 L 736.5 1163 Z " /><path fill="rgb(25,39,228)" stroke="rgb(25,39,228)" stroke-width="1" opacity="0.5372549019607843" d="M 763.5 1163 L 765 1163.5 L 760.5 1165 L 760.5 1164 L 763.5 1163 Z " /><path fill="rgb(25,39,228)" stroke="rgb(25,39,228)" stroke-width="1" opacity="0.5372549019607843" d="M 742.5 1165 L 745 1165.5 L 742.5 1166 L 742.5 1165 Z " /><path fill="rgb(25,39,228)" stroke="rgb(25,39,228)" stroke-width="1" opacity="0.5372549019607843" d="M 756.5 1165 L 759 1165.5 L 756.5 1166 L 756.5 1165 Z " /><path fill="rgb(25,39,228)" stroke="rgb(25,39,228)" stroke-width="1" opacity="0.996078431372549" d="M 398.5 549 L 405.5 549 L 413.5 551 Q 423.6 554.9 429 563.5 Q 434.5 571 434 584.5 Q 431.3 600.8 419.5 608 Q 412 613.5 398.5 613 Q 383.2 610.3 376 599.5 Q 369.4 592.1 370 577.5 Q 372.7 562.2 383.5 555 L 390.5 551 L 398.5 549 Z " /><path fill="rgb(25,39,228)" stroke="rgb(25,39,228)" stroke-width="1" opacity="0.996078431372549" d="M 587.5 692 L 595.5 692 L 596 693.5 L 641.5 740 L 643 739.5 L 642 754.5 L 639 763.5 Q 633.6 776.1 623.5 784 L 606.5 793 L 595.5 795 L 587.5 795 L 576.5 793 L 565.5 788 L 551 775.5 Q 544.2 766.8 541 754.5 L 540 739.5 Q 542.5 738 541 732.5 L 547 717.5 L 559.5 703 L 576.5 694 L 587.5 692 Z " /><path fill="rgb(25,39,228)" stroke="rgb(25,39,228)" stroke-width="1" opacity="0.996078431372549" d="M 600.5 693 L 606.5 694 L 621 701 L 622.5 704 L 624 703.5 L 623 704.5 L 628.5 710 L 630 709.5 Q 627.8 710.8 630.5 712 L 632 711.5 Q 629.8 712.8 632.5 714 Q 634.8 713.3 634 715.5 Q 640.6 722.9 642 735.5 L 616 710.5 L 600.5 693 Z " /><path fill="rgb(25,39,228)" stroke="rgb(25,39,228)" stroke-width="1" opacity="0.996078431372549" d="M 1143.5 729 L 1144.5 731 L 1143.5 729 Z " /><path fill="rgb(25,39,228)" stroke="rgb(25,39,228)" stroke-width="1" opacity="0.996078431372549" d="M 611.5 886 Q 625.4 891.1 633 902.5 L 639 913.5 L 611.5 886 Z " /><path fill="rgb(25,39,228)" stroke="rgb(25,39,228)" stroke-width="1" opacity="0.996078431372549" d="M 1125.5 894 L 1126.5 896 L 1125.5 894 Z " /><path fill="rgb(25,39,228)" stroke="rgb(25,39,228)" stroke-width="1" opacity="0.996078431372549" d="M 743.5 901 Q 766.5 901 775 915.5 Q 781.4 923.6 781 938.5 Q 778.2 955.2 766.5 963 Q 758.4 969.4 743.5 969 Q 726.8 966.2 719 954.5 Q 712.6 946.4 713 931.5 Q 715.8 914.8 727.5 907 Q 734 902.5 743.5 901 Z " /><path fill="rgb(25,39,228)" stroke="rgb(25,39,228)" stroke-width="1" opacity="0.996078431372549" d="M 842.5 930 L 843 932.5 L 893 983.5 L 889.5 984 L 876 981 L 870 972.5 L 846.5 949 L 845 949.5 Q 847.5 948 844 946.5 L 842 936.5 L 842.5 930 Z " /><path fill="rgb(25,39,228)" stroke="rgb(25,39,228)" stroke-width="1" opacity="0.996078431372549" d="M 846.5 952 L 872 978.5 L 870.5 978 Q 859.5 973.5 853 964.5 L 846.5 952 Z " /><path fill="rgb(25,39,228)" stroke="rgb(25,39,228)" stroke-width="1" opacity="0.996078431372549" d="M 950.5 1047 L 957 1047.5 L 955 1048.5 L 980.5 1075 L 981.5 1072 L 982 1079.5 L 979.5 1087 L 944 1049.5 L 950.5 1047 Z " /><path fill="rgb(25,39,228)" stroke="rgb(25,39,228)" stroke-width="1" opacity="0.996078431372549" d="M 940.5 1050 L 977.5 1088 L 979 1088.5 Q 976 1096 969.5 1100 Q 962.3 1105.3 949.5 1105 Q 935.6 1102.4 929 1092.5 Q 923.7 1085.3 924 1072.5 Q 926.6 1058.6 936.5 1052 L 940.5 1050 Z " /><path fill="rgb(58,81,236)" stroke="rgb(58,81,236)" stroke-width="1" opacity="0.9725490196078431" d="M 358.5 717 Q 380.2 716.8 388 730.5 L 393 743.5 L 393 751.5 Q 390.1 766.1 379.5 773 Q 372.4 778.9 358.5 778 Q 343.9 775.1 337 764.5 Q 331.1 757.4 332 743.5 Q 334.9 728.9 345.5 722 L 358.5 717 Z " /><path fill="rgb(58,81,236)" stroke="rgb(58,81,236)" stroke-width="1" opacity="0.9725490196078431" d="M 586.5 881 L 602.5 882 L 612 885.5 L 611 886.5 L 637.5 913 L 639 912.5 L 638.5 914 L 640 914.5 Q 637.5 916 641 917.5 L 643 927.5 L 643 937.5 L 640 950.5 L 635 960.5 L 623.5 973 L 606.5 982 L 597.5 984 L 585.5 984 Q 561.8 979.7 550 963.5 L 542 947.5 L 540 938.5 L 540 926.5 Q 544 903.5 559.5 892 L 573.5 884 L 586.5 881 Z " /><path fill="rgb(58,81,236)" stroke="rgb(58,81,236)" stroke-width="1" opacity="0.9725490196078431" d="M 400.5 882 Q 420.5 881.5 429 892.5 Q 437.7 900.8 437 918.5 Q 434.5 931 426.5 938 Q 418.2 946.7 400.5 946 Q 388 943.5 381 935.5 Q 372.3 927.2 373 909.5 Q 375.5 897 383.5 890 Q 390.1 884.1 400.5 882 Z " /><path fill="rgb(58,81,236)" stroke="rgb(58,81,236)" stroke-width="1" opacity="0.9725490196078431" d="M 623.5 892 L 631.5 901 L 623.5 892 Z " /><path fill="rgb(58,81,236)" stroke="rgb(58,81,236)" stroke-width="1" opacity="0.9725490196078431" d="M 541.5 1047 L 550.5 1047 L 557.5 1049 L 570 1059.5 L 575 1071.5 L 575 1080.5 Q 572.4 1093.8 562.5 1100 L 550.5 1105 L 541.5 1105 Q 528.1 1102.3 522 1092.5 L 517 1080.5 L 517 1071.5 Q 519.6 1058.2 529.5 1052 L 541.5 1047 Z " /><path fill="rgb(58,81,236)" stroke="rgb(58,81,236)" stroke-width="1" opacity="0.9725490196078431" d="M 746.5 1095 L 754.5 1095 L 762.5 1097 Q 773.8 1101.2 780 1110.5 Q 786.6 1118.9 786 1134.5 L 783 1145.5 L 775.5 1156 Q 766.1 1166.6 745.5 1166 Q 732.4 1163.6 725 1155.5 Q 714.4 1146.1 715 1125.5 L 718 1115.5 L 725 1105 L 733.5 1099 L 746.5 1095 Z " /><path fill="rgb(24,38,228)" stroke="rgb(24,38,228)" stroke-width="1" opacity="1" d="M 747.5 334 Q 770.5 334 779 348.5 L 785 360.5 L 786 372.5 L 784 381.5 L 780 389.5 L 770.5 399 Q 762.7 405.2 748.5 405 L 738.5 403 L 730.5 399 L 721 389.5 L 716 378.5 L 715 366.5 L 717 357.5 L 721 349.5 L 730.5 340 L 738.5 336 L 747.5 334 Z " /><path fill="rgb(24,38,228)" stroke="rgb(24,38,228)" stroke-width="1" opacity="1" d="M 538.5 394 Q 557.7 394.3 565 406.5 L 569 415.5 L 570 424.5 Q 567.8 425.8 569 430.5 L 565 439.5 L 557.5 447 L 544.5 452 L 537.5 452 L 524.5 447 L 518 440.5 L 513 430.5 L 512 420.5 Q 514.5 406 524.5 399 L 538.5 394 Z " /><path fill="rgb(24,38,228)" stroke="rgb(24,38,228)" stroke-width="1" opacity="1" d="M 950.5 394 Q 969.7 394.3 977 406.5 L 981 415.5 L 982 424.5 Q 979.8 425.8 981 430.5 L 977 439.5 L 969.5 447 L 956.5 452 L 949.5 452 L 936.5 447 L 930 440.5 L 925 430.5 L 924 420.5 Q 926.5 406 936.5 399 L 950.5 394 Z " /><path fill="rgb(24,38,228)" stroke="rgb(24,38,228)" stroke-width="1" opacity="1" d="M 587.5 506 Q 616.2 506.3 629 522.5 L 631 525.5 L 636 531.5 L 641 542.5 L 643 553.5 L 643 561.5 L 639 577.5 L 630.5 591 Q 628.3 590.3 629 592.5 L 625 595 L 623.5 598 Q 611 609 587.5 609 L 571.5 605 Q 561.1 600.4 554 592.5 Q 554.8 590.3 552.5 591 L 544 577.5 Q 539.7 567.8 540 553.5 L 544 537.5 L 552.5 524 Q 554.8 524.8 554 522.5 Q 560.8 514.3 571.5 510 L 587.5 506 Z " /><path fill="rgb(24,38,228)" stroke="rgb(24,38,228)" stroke-width="1" opacity="1" d="M 889.5 506 Q 918.2 506.3 931 522.5 L 933 525.5 L 938 531.5 L 943 542.5 L 945 553.5 L 945 561.5 L 941 577.5 L 932.5 591 Q 930.3 590.3 931 592.5 L 927 595 L 925.5 598 Q 913 609 889.5 609 L 873.5 605 Q 863.1 600.4 856 592.5 Q 856.8 590.3 854.5 591 L 846 577.5 Q 841.7 567.8 842 553.5 L 846 537.5 L 854.5 524 Q 856.8 524.8 856 522.5 Q 862.8 514.3 873.5 510 L 889.5 506 Z " /><path fill="rgb(24,38,228)" stroke="rgb(24,38,228)" stroke-width="1" opacity="1" d="M 739.5 524 Q 760.7 524.3 769 537.5 L 775 549.5 L 776 559.5 Q 773.5 561 775 566.5 L 771 575.5 L 762.5 585 Q 754.5 592.5 738.5 592 Q 721.8 589.2 714 577.5 Q 707.8 569.7 708 555.5 L 710 546.5 L 714 538.5 L 722.5 530 L 730.5 526 L 739.5 524 Z " /><path fill="rgb(24,38,228)" stroke="rgb(24,38,228)" stroke-width="1" opacity="1" d="M 1094.5 549 L 1100.5 549 L 1108.5 551 L 1120 558 L 1127 569.5 L 1129 582.5 L 1127 592.5 L 1120 604 L 1108.5 611 L 1100.5 613 L 1094.5 613 L 1086.5 611 L 1075 604 L 1068 592.5 L 1066 584.5 L 1066 577.5 L 1068 569.5 L 1075 558 L 1086.5 551 L 1094.5 549 Z " /><path fill="rgb(24,38,228)" stroke="rgb(24,38,228)" stroke-width="1" opacity="1" d="M 735.5 692 Q 764.2 692.3 777 708.5 L 779 711.5 L 784 717.5 L 789 728.5 L 791 739.5 L 791 747.5 L 787 763.5 L 778.5 777 Q 776.3 776.3 777 778.5 L 773 781 L 771.5 784 Q 759 795 735.5 795 L 719.5 791 Q 709.1 786.4 702 778.5 Q 702.8 776.3 700.5 777 L 692 763.5 Q 687.7 753.8 688 739.5 L 692 723.5 L 700.5 710 Q 702.8 710.8 702 708.5 Q 708.8 700.3 719.5 696 L 735.5 692 Z " /><path fill="rgb(24,38,228)" stroke="rgb(24,38,228)" stroke-width="1" opacity="1" d="M 596.5 693 L 599.5 693 L 616 709.5 L 642 736.5 L 642 739.5 L 625 723.5 L 596.5 693 Z " /><path fill="rgb(24,38,228)" stroke="rgb(24,38,228)" stroke-width="1" opacity="1" d="M 888.5 693 Q 917.2 693.3 930 709.5 L 932 712.5 L 937 718.5 L 942 729.5 L 944 740.5 L 944 748.5 L 940 764.5 L 931.5 778 Q 929.3 777.3 930 779.5 L 926 782 L 924.5 785 Q 912 796 888.5 796 L 872.5 792 Q 862.1 787.4 855 779.5 Q 855.8 777.3 853.5 778 L 845 764.5 Q 840.7 754.8 841 740.5 L 845 724.5 L 853.5 711 Q 855.8 711.8 855 709.5 Q 861.8 701.3 872.5 697 L 888.5 693 Z " /><path fill="rgb(24,38,228)" stroke="rgb(24,38,228)" stroke-width="1" opacity="1" d="M 621.5 702 L 629 708.5 L 631 711.5 L 632.5 714 L 621.5 702 Z " /><path fill="rgb(24,38,228)" stroke="rgb(24,38,228)" stroke-width="1" opacity="1" d="M 1116.5 717 Q 1135.6 716.9 1143 728.5 Q 1150.4 735.6 1150 750.5 L 1145 765 Q 1142.3 763.9 1143 766.5 Q 1135.6 778.1 1116.5 778 Q 1101 775.5 1094 764.5 Q 1088.7 757.3 1089 744.5 Q 1091.5 729 1102.5 722 L 1116.5 717 Z " /><path fill="rgb(24,38,228)" stroke="rgb(24,38,228)" stroke-width="1" opacity="1" d="M 889.5 881 Q 918.2 881.3 931 897.5 L 933 900.5 L 938 906.5 L 943 917.5 L 945 928.5 L 945 936.5 L 941 952.5 L 932.5 966 Q 930.3 965.3 931 967.5 L 927 970 L 925.5 973 Q 913.8 982.8 893.5 984 L 843 932.5 L 842 928.5 L 846 912.5 L 854.5 899 Q 856.8 899.8 856 897.5 Q 862.8 889.3 873.5 885 L 889.5 881 Z " /><path fill="rgb(24,38,228)" stroke="rgb(24,38,228)" stroke-width="1" opacity="1" d="M 1098.5 882 Q 1117.6 881.9 1125 893.5 Q 1132.4 900.6 1132 915.5 L 1127 930 Q 1124.3 928.9 1125 931.5 Q 1117.6 943.1 1098.5 943 Q 1083 940.5 1076 929.5 Q 1070.7 922.3 1071 909.5 Q 1073.5 894 1084.5 887 L 1098.5 882 Z " /><path fill="rgb(24,38,228)" stroke="rgb(24,38,228)" stroke-width="1" opacity="1" d="M 845.5 948 L 876 979.5 L 874.5 980 L 850 956.5 Q 845.3 953.3 845.5 948 Z " /><path fill="rgb(24,38,228)" stroke="rgb(24,38,228)" stroke-width="1" opacity="1" d="M 955.5 1048 Q 970.8 1049.2 977 1059.5 L 981 1068.5 L 981 1074.5 L 978 1072.5 L 955.5 1048 Z " /><path fill="rgb(24,38,228)" stroke="rgb(24,38,228)" stroke-width="1" opacity="1" d="M 943.5 1049 L 979 1085.5 L 979 1088 L 977.5 1088 L 963 1073.5 L 941 1050.5 L 943.5 1049 Z " /></svg>