<svg width="1500" height="840" version="1.1" xmlns="http://www.w3.org/2000/svg" desc="Created with imagetracer.js version 1.2.6" ><path fill="rgb(23,37,228)" stroke="rgb(23,37,228)" stroke-width="1" opacity="0.9490196078431372" d="M 485.5 150 L 498.5 150 Q 506.5 152.5 511 158.5 Q 517.2 164.8 515 179.5 Q 512.5 187.5 506.5 192 Q 500.2 198.2 485.5 196 Q 477.5 193.5 473 187.5 Q 466.8 181.2 469 166.5 Q 471.5 158.5 477.5 154 L 485.5 150 Z " /><path fill="rgb(23,37,228)" stroke="rgb(23,37,228)" stroke-width="1" opacity="0.9490196078431372" d="M 351.5 190 Q 369 188 374 198.5 Q 377.6 203.9 376 214.5 Q 373.9 222.4 367.5 226 Q 362.1 229.6 351.5 228 Q 343.6 225.9 340 219.5 Q 336.4 214.1 338 203.5 Q 340.1 195.6 346.5 192 L 351.5 190 Z " /><path fill="rgb(23,37,228)" stroke="rgb(23,37,228)" stroke-width="1" opacity="0.9490196078431372" d="M 617.5 190 Q 635 188 640 198.5 Q 643.6 203.9 642 214.5 Q 639.9 222.4 633.5 226 Q 628.1 229.6 617.5 228 Q 609.6 225.9 606 219.5 Q 602.4 214.1 604 203.5 Q 606.1 195.6 612.5 192 L 617.5 190 Z " /><path fill="rgb(23,37,228)" stroke="rgb(23,37,228)" stroke-width="1" opacity="0.9490196078431372" d="M 380.5 262 L 396.5 262 Q 408.4 265.1 415 273.5 L 422 287.5 L 422 303.5 Q 419.1 314.6 411.5 321 Q 405.7 326.7 396.5 329 L 380.5 329 Q 368.6 325.9 362 317.5 L 355 303.5 L 355 287.5 Q 357.9 276.4 365.5 270 Q 371.3 264.3 380.5 262 Z " /><path fill="rgb(23,37,228)" stroke="rgb(23,37,228)" stroke-width="1" opacity="0.9490196078431372" d="M 576.5 262 L 592.5 262 Q 604.4 265.1 611 273.5 L 618 287.5 L 618 303.5 Q 615.1 314.6 607.5 321 Q 601.7 326.7 592.5 329 L 576.5 329 Q 564.6 325.9 558 317.5 L 551 303.5 L 551 287.5 Q 553.9 276.4 561.5 270 Q 567.3 264.3 576.5 262 Z " /><path fill="rgb(23,37,228)" stroke="rgb(23,37,228)" stroke-width="1" opacity="0.9490196078431372" d="M 479.5 274 L 492.5 274 Q 500.6 276.9 505 283.5 Q 510.2 289.3 508 302.5 Q 505.1 310.6 498.5 315 Q 492.7 320.2 479.5 318 Q 471.4 315.1 467 308.5 Q 461.8 302.7 464 289.5 Q 466.9 281.4 473.5 277 L 479.5 274 Z " /><path fill="rgb(23,37,228)" stroke="rgb(23,37,228)" stroke-width="1" opacity="0.9490196078431372" d="M 260.5 290 L 272.5 290 Q 279.9 292.6 284 298.5 Q 289 304 287 316.5 Q 284.4 323.9 278.5 328 Q 273 333 260.5 331 Q 253.1 328.4 249 322.5 Q 244 317 246 304.5 Q 248.6 297.1 254.5 293 L 260.5 290 Z " /><path fill="rgb(23,37,228)" stroke="rgb(23,37,228)" stroke-width="1" opacity="0.9490196078431372" d="M 710.5 290 L 722.5 290 Q 729.9 292.6 734 298.5 Q 739 304 737 316.5 Q 734.4 323.9 728.5 328 Q 723 333 710.5 331 Q 703.1 328.4 699 322.5 Q 694 317 696 304.5 Q 698.6 297.1 704.5 293 L 710.5 290 Z " /><path fill="rgb(23,37,228)" stroke="rgb(23,37,228)" stroke-width="1" opacity="0.9490196078431372" d="M 1267.5 355 Q 1274 355.3 1277 358 L 1280 364.5 L 1280 368.5 L 1275.5 376 Q 1272.6 378.6 1266.5 378 L 1259 372.5 Q 1256.7 369.3 1258 362.5 L 1262.5 357 L 1267.5 355 Z " /><path fill="rgb(23,37,228)" stroke="rgb(23,37,228)" stroke-width="1" opacity="0.9490196078431372" d="M 1190.5 361 Q 1206.3 360.2 1212 369.5 L 1219 387.5 L 1245 473 L 1227.5 473 L 1227 471.5 L 1220 448.5 L 1218.5 447 L 1169.5 447 L 1169 448.5 L 1162 471.5 L 1160.5 473 L 1143 472.5 L 1174 373.5 L 1179.5 366 L 1190.5 361 Z M 1194 377 L 1192 378 L 1188 383 L 1174 430 L 1175 431 L 1214 431 L 1199 380 L 1194 377 Z " /><path fill="rgb(23,37,228)" stroke="rgb(23,37,228)" stroke-width="1" opacity="0.9490196078431372" d="M 574 363 L 591.5 363 L 592 363.5 L 592 472.5 L 590.5 474 L 574 474 L 574 363 Z " /><path fill="rgb(23,37,228)" stroke="rgb(23,37,228)" stroke-width="1" opacity="0.9490196078431372" d="M 990 372 L 1007 372 L 1007 393 L 1038 393 L 1038 408 L 1007 408 L 1007 447.5 L 1012.5 457 Q 1016.9 461 1026.5 460 L 1037.5 455 L 1038 470.5 L 1029.5 475 L 1018.5 476 L 1005.5 473 L 996 465.5 L 992 458.5 L 990 450.5 L 990 408 L 974 408 L 974 393 L 990 393 L 990 372 Z " /><path fill="rgb(23,37,228)" stroke="rgb(23,37,228)" stroke-width="1" opacity="0.9490196078431372" d="M 380.5 383 L 396.5 383 Q 408.4 386.1 415 394.5 L 422 408.5 L 422 424.5 Q 419.1 435.6 411.5 442 Q 405.7 447.7 396.5 450 L 380.5 450 Q 368.6 446.9 362 438.5 L 355 424.5 L 355 408.5 Q 357.9 397.4 365.5 391 Q 371.3 385.3 380.5 383 Z " /><path fill="rgb(23,37,228)" stroke="rgb(23,37,228)" stroke-width="1" opacity="0.9490196078431372" d="M 476.5 383 L 492.5 383 Q 504.4 386.1 511 394.5 L 518 408.5 L 518 424.5 Q 515.1 435.6 507.5 442 Q 501.7 447.7 492.5 450 L 476.5 450 Q 464.6 446.9 458 438.5 L 451 424.5 L 451 408.5 Q 453.9 397.4 461.5 391 Q 467.3 385.3 476.5 383 Z " /><path fill="rgb(23,37,228)" stroke="rgb(23,37,228)" stroke-width="1" opacity="0.9490196078431372" d="M 826.5 390 Q 851.5 389.5 862 403.5 L 869 416.5 L 871 427.5 L 871 438 L 807.5 438 L 807 440.5 Q 809.8 449.7 816.5 455 L 828.5 460 L 837.5 460 Q 847.2 457.7 853 451.5 L 855 447 L 869 453 Q 865.9 462.5 857.5 468 Q 851.1 473.1 841.5 475 L 824.5 475 Q 808.8 471.8 800 461.5 Q 793.8 454.7 791 444.5 L 790 426.5 L 794 412.5 L 803.5 400 L 814.5 393 L 826.5 390 Z M 826 406 L 816 411 Q 810 415 808 423 L 809 426 L 853 426 L 852 419 L 847 411 L 837 406 L 826 406 Z " /><path fill="rgb(23,37,228)" stroke="rgb(23,37,228)" stroke-width="1" opacity="0.9490196078431372" d="M 646.5 391 Q 678.2 388.3 689 406.5 L 694 416.5 L 696 425.5 L 696 474 L 679 474 L 679 429.5 Q 677 417 668.5 411 L 658.5 407 L 651.5 407 Q 641.5 409 637 416.5 L 632 430.5 L 632 474 L 615 474 L 615 426.5 L 619 411.5 L 627.5 400 Q 634.6 393.1 646.5 391 Z " /><path fill="rgb(23,37,228)" stroke="rgb(23,37,228)" stroke-width="1" opacity="0.9490196078431372" d="M 916.5 391 Q 948.2 388.3 959 406.5 L 964 416.5 L 966 425.5 L 966 474 L 949 474 L 949 429.5 Q 947 417 938.5 411 L 928.5 407 L 921.5 407 Q 911.5 409 907 416.5 L 902 430.5 L 902 474 L 885 474 L 885 426.5 L 889 411.5 L 897.5 400 Q 904.6 393.1 916.5 391 Z " /><path fill="rgb(23,37,228)" stroke="rgb(23,37,228)" stroke-width="1" opacity="0.9490196078431372" d="M 702.5 393 L 720.5 393 L 721 395.5 L 744 459 L 747 457.5 L 770 393 L 787.5 393 L 788 395.5 L 784 403.5 L 762 464.5 L 755.5 473 Q 751.2 476.2 743.5 476 L 736.5 474 L 730 467.5 L 702.5 393 Z " /><path fill="rgb(23,37,228)" stroke="rgb(23,37,228)" stroke-width="1" opacity="0.9490196078431372" d="M 1052 393 L 1070 393 L 1070 439.5 Q 1072.4 449.6 1079.5 455 Q 1084.8 459.2 1094.5 459 Q 1103.1 457.1 1108 451.5 L 1114 438.5 L 1114 393 L 1130.5 393 L 1131 393.5 L 1131 443.5 Q 1127.8 459.8 1116.5 468 L 1101.5 475 L 1082.5 475 Q 1067.4 471.6 1060 460.5 L 1054 447.5 L 1053 436.5 L 1052 435.5 L 1052 393 Z " /><path fill="rgb(23,37,228)" stroke="rgb(23,37,228)" stroke-width="1" opacity="0.9490196078431372" d="M 1260 393 L 1276.5 393 L 1277 393.5 L 1277 473 L 1260.5 473 L 1260 472.5 L 1260 393 Z " /><path fill="rgb(23,37,228)" stroke="rgb(23,37,228)" stroke-width="1" opacity="0.9490196078431372" d="M 234.5 399 L 246.5 399 Q 253.3 401.3 257 406.5 Q 262 412 260 424.5 Q 257.8 431.3 252.5 435 Q 247 440 234.5 438 Q 227.8 435.8 224 430.5 Q 219 425 221 412.5 Q 223.3 405.8 228.5 402 L 234.5 399 Z " /><path fill="rgb(23,37,228)" stroke="rgb(23,37,228)" stroke-width="1" opacity="0.9490196078431372" d="M 380.5 505 L 396.5 505 Q 408.4 508.1 415 516.5 L 422 530.5 L 422 546.5 Q 419.1 557.6 411.5 564 Q 405.7 569.7 396.5 572 L 380.5 572 Q 368.6 568.9 362 560.5 L 355 546.5 L 355 530.5 Q 357.9 519.4 365.5 513 Q 371.3 507.3 380.5 505 Z " /><path fill="rgb(23,37,228)" stroke="rgb(23,37,228)" stroke-width="1" opacity="0.9490196078431372" d="M 576.5 505 L 592.5 505 Q 604.4 508.1 611 516.5 L 618 530.5 L 618 546.5 Q 615.1 557.6 607.5 564 Q 601.7 569.7 592.5 572 L 576.5 572 Q 564.6 568.9 558 560.5 L 551 546.5 L 551 530.5 Q 553.9 519.4 561.5 513 Q 567.3 507.3 576.5 505 Z " /><path fill="rgb(23,37,228)" stroke="rgb(23,37,228)" stroke-width="1" opacity="0.9490196078431372" d="M 261.5 506 L 273.5 506 Q 280.9 508.6 285 514.5 Q 290 520 288 532.5 Q 285.4 539.9 279.5 544 Q 274 549 261.5 547 Q 254.1 544.4 250 538.5 Q 245 533 247 520.5 Q 249.6 513.1 255.5 509 L 261.5 506 Z " /><path fill="rgb(23,37,228)" stroke="rgb(23,37,228)" stroke-width="1" opacity="0.9490196078431372" d="M 713.5 506 Q 729.6 503.9 735 512.5 Q 741.2 517.8 739 531.5 L 732.5 541 Q 726.8 546.8 713.5 545 L 703 538.5 Q 696.8 533.2 699 519.5 L 705.5 510 L 713.5 506 Z " /><path fill="rgb(23,37,228)" stroke="rgb(23,37,228)" stroke-width="1" opacity="0.9490196078431372" d="M 483.5 518 L 496.5 518 Q 504.6 520.9 509 527.5 Q 514.2 533.3 512 546.5 Q 509.1 554.6 502.5 559 Q 496.7 564.2 483.5 562 Q 475.4 559.1 471 552.5 Q 465.8 546.7 468 533.5 Q 470.9 525.4 477.5 521 L 483.5 518 Z " /><path fill="rgb(23,37,228)" stroke="rgb(23,37,228)" stroke-width="1" opacity="0.9490196078431372" d="M 354.5 612 Q 372 610 377 620.5 Q 380.6 625.9 379 636.5 Q 376.9 644.4 370.5 648 Q 365.1 651.6 354.5 650 Q 346.6 647.9 343 641.5 Q 339.4 636.1 341 625.5 Q 343.1 617.6 349.5 614 L 354.5 612 Z " /><path fill="rgb(23,37,228)" stroke="rgb(23,37,228)" stroke-width="1" opacity="0.9490196078431372" d="M 617.5 612 Q 635 610 640 620.5 Q 643.6 625.9 642 636.5 Q 639.9 644.4 633.5 648 Q 628.1 651.6 617.5 650 Q 609.6 647.9 606 641.5 Q 602.4 636.1 604 625.5 Q 606.1 617.6 612.5 614 L 617.5 612 Z " /><path fill="rgb(23,37,228)" stroke="rgb(23,37,228)" stroke-width="1" opacity="0.9490196078431372" d="M 485.5 644 L 498.5 644 Q 506.5 646.5 511 652.5 Q 517.2 658.8 515 673.5 Q 512.5 681.5 506.5 686 Q 500.2 692.2 485.5 690 Q 477.5 687.5 473 681.5 Q 466.8 675.2 469 660.5 Q 471.5 652.5 477.5 648 L 485.5 644 Z " /><path fill="rgb(0,0,0)" stroke="rgb(0,0,0)" stroke-width="1" opacity="0" d="M 0 0 L 1500 0 L 1500 840 L 0 840 L 0 0 Z M 486 150 L 478 154 Q 472 159 469 167 Q 467 181 473 188 Q 478 194 486 196 Q 500 198 507 192 Q 513 188 515 180 Q 517 165 511 159 Q 507 153 499 150 L 486 150 Z M 352 190 L 347 192 Q 340 196 338 204 Q 336 214 340 220 Q 344 226 352 228 Q 362 230 368 226 Q 374 222 376 215 Q 378 204 374 199 Q 369 188 352 190 Z M 618 190 L 613 192 Q 606 196 604 204 Q 602 214 606 220 Q 610 226 618 228 Q 628 230 634 226 Q 640 222 642 215 Q 644 204 640 199 Q 635 188 618 190 Z M 381 262 Q 371 264 366 270 Q 358 276 355 288 L 355 304 L 362 318 Q 369 326 381 329 L 397 329 Q 406 327 412 321 Q 419 315 422 304 L 422 288 L 415 274 Q 408 265 397 262 L 381 262 Z M 577 262 Q 567 264 562 270 Q 554 276 551 288 L 551 304 L 558 318 Q 565 326 577 329 L 593 329 Q 602 327 608 321 Q 615 315 618 304 L 618 288 L 611 274 Q 604 265 593 262 L 577 262 Z M 480 274 L 474 277 Q 467 281 464 290 Q 462 303 467 309 Q 471 315 480 318 Q 493 320 499 315 Q 505 311 508 303 Q 510 289 505 284 Q 501 277 493 274 L 480 274 Z M 261 290 L 255 293 Q 249 297 246 305 Q 244 317 249 323 Q 253 328 261 331 Q 273 333 279 328 Q 284 324 287 317 Q 289 304 284 299 Q 280 293 273 290 L 261 290 Z M 711 290 L 705 293 Q 699 297 696 305 Q 694 317 699 323 Q 703 328 711 331 Q 723 333 729 328 Q 734 324 737 317 Q 739 304 734 299 Q 730 293 723 290 L 711 290 Z M 1268 355 L 1263 357 L 1258 363 Q 1257 369 1259 373 L 1267 378 Q 1273 379 1276 376 L 1280 369 L 1280 365 L 1277 358 Q 1274 355 1268 355 Z M 1191 361 L 1180 366 L 1174 374 L 1143 473 L 1161 473 L 1162 472 L 1169 449 L 1170 447 L 1219 447 L 1220 449 L 1227 472 L 1228 473 L 1245 473 L 1219 388 L 1212 370 Q 1206 360 1191 361 Z M 574 363 L 574 474 L 591 474 L 592 473 L 592 364 L 592 363 L 574 363 Z M 990 372 L 990 393 L 974 393 L 974 408 L 990 408 L 990 451 L 992 459 L 996 466 L 1006 473 L 1019 476 L 1030 475 L 1038 471 L 1038 455 L 1027 460 Q 1017 461 1013 457 L 1007 448 L 1007 408 L 1038 408 L 1038 393 L 1007 393 L 1007 372 L 990 372 Z M 381 383 Q 371 385 366 391 Q 358 397 355 409 L 355 425 L 362 439 Q 369 447 381 450 L 397 450 Q 406 448 412 442 Q 419 436 422 425 L 422 409 L 415 395 Q 408 386 397 383 L 381 383 Z M 477 383 Q 467 385 462 391 Q 454 397 451 409 L 451 425 L 458 439 Q 465 447 477 450 L 493 450 Q 502 448 508 442 Q 515 436 518 425 L 518 409 L 511 395 Q 504 386 493 383 L 477 383 Z M 827 390 L 815 393 L 804 400 L 794 413 L 790 427 L 791 445 Q 794 455 800 462 Q 809 472 825 475 L 842 475 Q 851 473 858 468 Q 866 463 869 453 L 855 447 L 853 452 Q 847 458 838 460 L 829 460 L 817 455 Q 810 450 807 441 L 808 438 L 871 438 L 871 428 L 869 417 L 862 404 Q 851 390 827 390 Z M 647 391 Q 635 393 628 400 L 619 412 L 615 427 L 615 474 L 632 474 L 632 431 L 637 417 Q 642 409 652 407 L 659 407 L 669 411 Q 677 417 679 430 L 679 474 L 696 474 L 696 426 L 694 417 L 689 407 Q 678 388 647 391 Z M 917 391 Q 905 393 898 400 L 889 412 L 885 427 L 885 474 L 902 474 L 902 431 L 907 417 Q 912 409 922 407 L 929 407 L 939 411 Q 947 417 949 430 L 949 474 L 966 474 L 966 426 L 964 417 L 959 407 Q 948 388 917 391 Z M 703 393 L 730 468 L 737 474 L 744 476 Q 751 476 756 473 L 762 465 L 784 404 L 788 396 L 788 393 L 770 393 L 747 458 L 744 459 L 721 396 L 721 393 L 703 393 Z M 1052 393 L 1052 436 L 1053 437 L 1054 448 L 1060 461 Q 1067 472 1083 475 L 1102 475 L 1117 468 Q 1128 460 1131 444 L 1131 394 L 1131 393 L 1114 393 L 1114 439 L 1108 452 Q 1103 457 1095 459 Q 1085 459 1080 455 Q 1072 450 1070 440 L 1070 393 L 1052 393 Z M 1260 393 L 1260 473 L 1261 473 L 1277 473 L 1277 394 L 1277 393 L 1260 393 Z M 235 399 L 229 402 Q 223 406 221 413 Q 219 425 224 431 Q 228 436 235 438 Q 247 440 253 435 Q 258 431 260 425 Q 262 412 257 407 Q 253 401 247 399 L 235 399 Z M 381 505 Q 371 507 366 513 Q 358 519 355 531 L 355 547 L 362 561 Q 369 569 381 572 L 397 572 Q 406 570 412 564 Q 419 558 422 547 L 422 531 L 415 517 Q 408 508 397 505 L 381 505 Z M 577 505 Q 567 507 562 513 Q 554 519 551 531 L 551 547 L 558 561 Q 565 569 577 572 L 593 572 Q 602 570 608 564 Q 615 558 618 547 L 618 531 L 611 517 Q 604 508 593 505 L 577 505 Z M 262 506 L 256 509 Q 250 513 247 521 Q 245 533 250 539 Q 254 544 262 547 Q 274 549 280 544 Q 285 540 288 533 Q 290 520 285 515 Q 281 509 274 506 L 262 506 Z M 714 506 L 706 510 L 699 520 Q 697 533 703 539 L 714 545 Q 727 547 733 541 L 739 532 Q 741 518 735 513 Q 730 504 714 506 Z M 484 518 L 478 521 Q 471 525 468 534 Q 466 547 471 553 Q 475 559 484 562 Q 497 564 503 559 Q 509 555 512 547 Q 514 533 509 528 Q 505 521 497 518 L 484 518 Z M 355 612 L 350 614 Q 343 618 341 626 Q 339 636 343 642 Q 347 648 355 650 Q 365 652 371 648 Q 377 644 379 637 Q 381 626 377 621 Q 372 610 355 612 Z M 618 612 L 613 614 Q 606 618 604 626 Q 602 636 606 642 Q 610 648 618 650 Q 628 652 634 648 Q 640 644 642 637 Q 644 626 640 621 Q 635 610 618 612 Z M 486 644 L 478 648 Q 472 653 469 661 Q 467 675 473 682 Q 478 687 486 690 Q 500 692 507 686 Q 513 682 515 674 Q 517 659 511 653 Q 507 647 499 644 L 486 644 Z " /><path fill="rgb(0,0,0)" stroke="rgb(0,0,0)" stroke-width="1" opacity="0" d="M 1193.5 377 L 1199 379.5 L 1214 431 L 1174.5 431 L 1174 429.5 L 1188 382.5 L 1191.5 378 L 1193.5 377 Z " /><path fill="rgb(0,0,0)" stroke="rgb(0,0,0)" stroke-width="1" opacity="0" d="M 825.5 406 L 836.5 406 L 847 411 L 852 418.5 L 853 426 L 808.5 426 L 808 422.5 Q 810.2 415.2 815.5 411 L 825.5 406 Z " /></svg>