<?xml version="1.0" encoding="UTF-8"?>
<svg version="1.1" xmlns="http://www.w3.org/2000/svg" width="1522" height="1500">
<path d="M0 0 C0.9182959 0.00829834 1.8365918 0.01659668 2.78271484 0.02514648 C16.58997071 0.36782789 27.75459629 5.76362657 37.875 15.125 C47.58434403 25.43245557 52.2271363 37.8041546 52.0625 51.8125 C52.05420166 52.7307959 52.04590332 53.6490918 52.03735352 54.59521484 C51.69467211 68.40247071 46.29887343 79.56709629 36.9375 89.6875 C26.63004443 99.39684403 14.2583454 104.0396363 0.25 103.875 C-0.6682959 103.86670166 -1.5865918 103.85840332 -2.53271484 103.84985352 C-16.33997071 103.50717211 -27.50459629 98.11137343 -37.625 88.75 C-47.33434403 78.44254443 -51.9771363 66.0708454 -51.8125 52.0625 C-51.80420166 51.1442041 -51.79590332 50.2259082 -51.78735352 49.27978516 C-51.44467211 35.47252929 -46.04887343 24.30790371 -36.6875 14.1875 C-26.38004443 4.47815597 -14.0083454 -0.1646363 0 0 Z " fill="#F4F4F4" transform="translate(893.375,880.5625)"/>
<path d="M0 0 C0.9182959 0.00829834 1.8365918 0.01659668 2.78271484 0.02514648 C16.58997071 0.36782789 27.75459629 5.76362657 37.875 15.125 C47.58434403 25.43245557 52.2271363 37.8041546 52.0625 51.8125 C52.05420166 52.7307959 52.04590332 53.6490918 52.03735352 54.59521484 C51.69467211 68.40247071 46.29887343 79.56709629 36.9375 89.6875 C26.63004443 99.39684403 14.2583454 104.0396363 0.25 103.875 C-0.6682959 103.86670166 -1.5865918 103.85840332 -2.53271484 103.84985352 C-16.33997071 103.50717211 -27.50459629 98.11137343 -37.625 88.75 C-47.33434403 78.44254443 -51.9771363 66.0708454 -51.8125 52.0625 C-51.80420166 51.1442041 -51.79590332 50.2259082 -51.78735352 49.27978516 C-51.44467211 35.47252929 -46.04887343 24.30790371 -36.6875 14.1875 C-26.38004443 4.47815597 -14.0083454 -0.1646363 0 0 Z " fill="#F4F4F4" transform="translate(591.375,880.5625)"/>
<path d="M0 0 C0.9182959 0.00829834 1.8365918 0.01659668 2.78271484 0.02514648 C16.58997071 0.36782789 27.75459629 5.76362657 37.875 15.125 C47.58434403 25.43245557 52.2271363 37.8041546 52.0625 51.8125 C52.05420166 52.7307959 52.04590332 53.6490918 52.03735352 54.59521484 C51.69467211 68.40247071 46.29887343 79.56709629 36.9375 89.6875 C26.63004443 99.39684403 14.2583454 104.0396363 0.25 103.875 C-0.6682959 103.86670166 -1.5865918 103.85840332 -2.53271484 103.84985352 C-16.33997071 103.50717211 -27.50459629 98.11137343 -37.625 88.75 C-47.33434403 78.44254443 -51.9771363 66.0708454 -51.8125 52.0625 C-51.80420166 51.1442041 -51.79590332 50.2259082 -51.78735352 49.27978516 C-51.44467211 35.47252929 -46.04887343 24.30790371 -36.6875 14.1875 C-26.38004443 4.47815597 -14.0083454 -0.1646363 0 0 Z " fill="#F4F4F4" transform="translate(892.375,692.5625)"/>
<path d="M0 0 C0.9182959 0.00829834 1.8365918 0.01659668 2.78271484 0.02514648 C16.58997071 0.36782789 27.75459629 5.76362657 37.875 15.125 C47.58434403 25.43245557 52.2271363 37.8041546 52.0625 51.8125 C52.05420166 52.7307959 52.04590332 53.6490918 52.03735352 54.59521484 C51.69467211 68.40247071 46.29887343 79.56709629 36.9375 89.6875 C26.63004443 99.39684403 14.2583454 104.0396363 0.25 103.875 C-0.6682959 103.86670166 -1.5865918 103.85840332 -2.53271484 103.84985352 C-16.33997071 103.50717211 -27.50459629 98.11137343 -37.625 88.75 C-47.33434403 78.44254443 -51.9771363 66.0708454 -51.8125 52.0625 C-51.80420166 51.1442041 -51.79590332 50.2259082 -51.78735352 49.27978516 C-51.44467211 35.47252929 -46.04887343 24.30790371 -36.6875 14.1875 C-26.38004443 4.47815597 -14.0083454 -0.1646363 0 0 Z " fill="#F4F4F4" transform="translate(739.375,691.5625)"/>
<path d="M0 0 C0.9182959 0.00829834 1.8365918 0.01659668 2.78271484 0.02514648 C16.58997071 0.36782789 27.75459629 5.76362657 37.875 15.125 C47.58434403 25.43245557 52.2271363 37.8041546 52.0625 51.8125 C52.05420166 52.7307959 52.04590332 53.6490918 52.03735352 54.59521484 C51.69467211 68.40247071 46.29887343 79.56709629 36.9375 89.6875 C26.63004443 99.39684403 14.2583454 104.0396363 0.25 103.875 C-0.6682959 103.86670166 -1.5865918 103.85840332 -2.53271484 103.84985352 C-16.33997071 103.50717211 -27.50459629 98.11137343 -37.625 88.75 C-47.33434403 78.44254443 -51.9771363 66.0708454 -51.8125 52.0625 C-51.80420166 51.1442041 -51.79590332 50.2259082 -51.78735352 49.27978516 C-51.44467211 35.47252929 -46.04887343 24.30790371 -36.6875 14.1875 C-26.38004443 4.47815597 -14.0083454 -0.1646363 0 0 Z " fill="#F4F4F4" transform="translate(591.375,691.5625)"/>
<path d="M0 0 C0.9182959 0.00829834 1.8365918 0.01659668 2.78271484 0.02514648 C16.58997071 0.36782789 27.75459629 5.76362657 37.875 15.125 C47.58434403 25.43245557 52.2271363 37.8041546 52.0625 51.8125 C52.05420166 52.7307959 52.04590332 53.6490918 52.03735352 54.59521484 C51.69467211 68.40247071 46.29887343 79.56709629 36.9375 89.6875 C26.63004443 99.39684403 14.2583454 104.0396363 0.25 103.875 C-0.6682959 103.86670166 -1.5865918 103.85840332 -2.53271484 103.84985352 C-16.33997071 103.50717211 -27.50459629 98.11137343 -37.625 88.75 C-47.33434403 78.44254443 -51.9771363 66.0708454 -51.8125 52.0625 C-51.80420166 51.1442041 -51.79590332 50.2259082 -51.78735352 49.27978516 C-51.44467211 35.47252929 -46.04887343 24.30790371 -36.6875 14.1875 C-26.38004443 4.47815597 -14.0083454 -0.1646363 0 0 Z " fill="#F4F4F4" transform="translate(893.375,505.5625)"/>
<path d="M0 0 C0.9182959 0.00829834 1.8365918 0.01659668 2.78271484 0.02514648 C16.58997071 0.36782789 27.75459629 5.76362657 37.875 15.125 C47.58434403 25.43245557 52.2271363 37.8041546 52.0625 51.8125 C52.05420166 52.7307959 52.04590332 53.6490918 52.03735352 54.59521484 C51.69467211 68.40247071 46.29887343 79.56709629 36.9375 89.6875 C26.63004443 99.39684403 14.2583454 104.0396363 0.25 103.875 C-0.6682959 103.86670166 -1.5865918 103.85840332 -2.53271484 103.84985352 C-16.33997071 103.50717211 -27.50459629 98.11137343 -37.625 88.75 C-47.33434403 78.44254443 -51.9771363 66.0708454 -51.8125 52.0625 C-51.80420166 51.1442041 -51.79590332 50.2259082 -51.78735352 49.27978516 C-51.44467211 35.47252929 -46.04887343 24.30790371 -36.6875 14.1875 C-26.38004443 4.47815597 -14.0083454 -0.1646363 0 0 Z " fill="#F4F4F4" transform="translate(591.375,505.5625)"/>
<path d="M0 0 C7.58551395 5.31237153 12.20991629 12.6135175 14.609375 21.52734375 C15.73093546 34.72524125 14.31654611 44.97588853 5.66796875 55.484375 C-1.6080073 62.70512542 -10.51630304 65.92722757 -20.640625 65.90234375 C-31.15587566 65.85950259 -39.70901273 62.97768167 -47.390625 55.52734375 C-55.51578219 45.59659607 -57.39356413 36.0475951 -56.60205078 23.50537109 C-55.70161164 15.08117023 -50.77961434 7.11833503 -44.28515625 1.8046875 C-30.66337852 -7.73759053 -14.25677281 -8.78235842 0 0 Z " fill="#F4F4F4" transform="translate(771.390625,1100.47265625)"/>
<path d="M0 0 C7.58551395 5.31237153 12.20991629 12.6135175 14.609375 21.52734375 C15.73093546 34.72524125 14.31654611 44.97588853 5.66796875 55.484375 C-1.6080073 62.70512542 -10.51630304 65.92722757 -20.640625 65.90234375 C-31.15587566 65.85950259 -39.70901273 62.97768167 -47.390625 55.52734375 C-55.51578219 45.59659607 -57.39356413 36.0475951 -56.60205078 23.50537109 C-55.70161164 15.08117023 -50.77961434 7.11833503 -44.28515625 1.8046875 C-30.66337852 -7.73759053 -14.25677281 -8.78235842 0 0 Z " fill="#F4F4F4" transform="translate(771.390625,339.47265625)"/>
<path d="M0 0 C1.11930908 0.01027222 1.11930908 0.01027222 2.26123047 0.02075195 C8.37667935 0.19788635 13.33758032 1.36886683 18.6875 4.4375 C19.32945312 4.788125 19.97140625 5.13875 20.6328125 5.5 C25.78012749 8.70871584 28.75744167 13.21666879 31.6875 18.4375 C32.03039062 19.03046875 32.37328125 19.6234375 32.7265625 20.234375 C36.19418093 27.55850365 35.82657128 37.71586582 33.9609375 45.44921875 C33.03186871 47.91540543 31.98125631 50.14363602 30.6875 52.4375 C30.1615625 53.40236328 30.1615625 53.40236328 29.625 54.38671875 C25.61597783 60.80393826 18.36402811 65.60424572 11.234375 67.95703125 C0.80853052 69.92387001 -8.63771234 69.48901577 -17.921875 64.0859375 C-20.77967844 62.11536062 -23.10759584 60.12472695 -25.3125 57.4375 C-25.993125 56.715625 -26.67375 55.99375 -27.375 55.25 C-33.5888273 46.22992811 -34.38261245 37.08457845 -33.3125 26.4375 C-32.42425156 22.78475641 -31.15563525 19.7054273 -29.3125 16.4375 C-28.961875 15.79425781 -28.61125 15.15101563 -28.25 14.48828125 C-22.31287724 4.98476184 -10.91858235 -0.154287 0 0 Z " fill="#F4F4F4" transform="translate(746.3125,900.5625)"/>
<path d="M0 0 C1.11930908 0.01027222 1.11930908 0.01027222 2.26123047 0.02075195 C8.37667935 0.19788635 13.33758032 1.36886683 18.6875 4.4375 C19.32945312 4.788125 19.97140625 5.13875 20.6328125 5.5 C25.78012749 8.70871584 28.75744167 13.21666879 31.6875 18.4375 C32.03039062 19.03046875 32.37328125 19.6234375 32.7265625 20.234375 C36.19418093 27.55850365 35.82657128 37.71586582 33.9609375 45.44921875 C33.03186871 47.91540543 31.98125631 50.14363602 30.6875 52.4375 C30.1615625 53.40236328 30.1615625 53.40236328 29.625 54.38671875 C25.61597783 60.80393826 18.36402811 65.60424572 11.234375 67.95703125 C0.80853052 69.92387001 -8.63771234 69.48901577 -17.921875 64.0859375 C-20.77967844 62.11536062 -23.10759584 60.12472695 -25.3125 57.4375 C-25.993125 56.715625 -26.67375 55.99375 -27.375 55.25 C-33.5888273 46.22992811 -34.38261245 37.08457845 -33.3125 26.4375 C-32.42425156 22.78475641 -31.15563525 19.7054273 -29.3125 16.4375 C-28.961875 15.79425781 -28.61125 15.15101563 -28.25 14.48828125 C-22.31287724 4.98476184 -10.91858235 -0.154287 0 0 Z " fill="#F4F4F4" transform="translate(741.3125,523.5625)"/>
<path d="M0 0 C7.48874873 4.44601038 12.81690928 10.75881313 15.75 19.078125 C17.49212583 29.72232237 16.84899776 40.12067238 10.78515625 49.234375 C5.95667449 55.40849921 -0.38190239 59.19037832 -7.89453125 61.25 C-18.94807153 62.24435613 -28.53520664 61.58049298 -37.64453125 54.625 C-43.66761646 49.03009621 -47.58286944 41.8789442 -48.1328125 33.7109375 C-48.42719071 22.87861486 -47.31064959 14.03960651 -39.59765625 5.78125 C-29.0100223 -3.73790713 -12.93902605 -6.24194221 0 0 Z " fill="#F4F4F4" transform="translate(420.89453125,884.75)"/>
<path d="M0 0 C7.48874873 4.44601038 12.81690928 10.75881313 15.75 19.078125 C17.49212583 29.72232237 16.84899776 40.12067238 10.78515625 49.234375 C5.95667449 55.40849921 -0.38190239 59.19037832 -7.89453125 61.25 C-18.94807153 62.24435613 -28.53520664 61.58049298 -37.64453125 54.625 C-43.66761646 49.03009621 -47.58286944 41.8789442 -48.1328125 33.7109375 C-48.42719071 22.87861486 -47.31064959 14.03960651 -39.59765625 5.78125 C-29.0100223 -3.73790713 -12.93902605 -6.24194221 0 0 Z " fill="#F4F4F4" transform="translate(417.89453125,551.75)"/>
<path d="M0 0 C7.549416 4.42623294 12.75935345 10.24052395 15.71484375 18.53125 C17.87195427 28.23186534 17.58893394 38.84642607 12.375 47.5 C7.76400326 54.64126514 1.48289505 59.00804116 -6.625 61.5 C-16.05875623 63.12035405 -24.75599011 62.22114553 -33.1015625 57.328125 C-40.0583058 52.28825524 -44.74397613 45.95904227 -46.625 37.5 C-47.74458841 26.14252583 -46.76535889 16.53770398 -39.625 7.25 C-29.16163697 -3.61070593 -13.62727577 -6.21595035 0 0 Z " fill="#F4F4F4" transform="translate(1112.625,551.5)"/>
<path d="M0 0 C6.40287374 4.18649437 10.59494461 10.78483384 13 18 C13.73848176 27.88510584 14.11355515 36.65876586 8 45 C5.5 47.875 5.5 47.875 3 50 C1.8553125 51.051875 1.8553125 51.051875 0.6875 52.125 C-7.32250996 57.71337904 -15.46060946 57.91570099 -25 57 C-34.15822518 54.68671773 -39.49491621 50.13951828 -44.66796875 42.4140625 C-49.09136095 34.39747487 -49.44989958 24.78465092 -47.2421875 15.9765625 C-43.97477249 7.40924598 -38.97860604 2.40243473 -31 -2 C-21.01700853 -6.0564497 -9.33814738 -5.32854737 0 0 Z " fill="#F4F4F4" transform="translate(1119,886)"/>
<path d="M0 0 C6.40287374 4.18649437 10.59494461 10.78483384 13 18 C13.73848176 27.88510584 14.11355515 36.65876586 8 45 C5.5 47.875 5.5 47.875 3 50 C1.8553125 51.051875 1.8553125 51.051875 0.6875 52.125 C-7.32250996 57.71337904 -15.46060946 57.91570099 -25 57 C-34.15822518 54.68671773 -39.49491621 50.13951828 -44.66796875 42.4140625 C-49.09136095 34.39747487 -49.44989958 24.78465092 -47.2421875 15.9765625 C-43.97477249 7.40924598 -38.97860604 2.40243473 -31 -2 C-21.01700853 -6.0564497 -9.33814738 -5.32854737 0 0 Z " fill="#F4F4F4" transform="translate(1137,721)"/>
<path d="M0 0 C6.40287374 4.18649437 10.59494461 10.78483384 13 18 C13.73848176 27.88510584 14.11355515 36.65876586 8 45 C5.5 47.875 5.5 47.875 3 50 C1.8553125 51.051875 1.8553125 51.051875 0.6875 52.125 C-7.32250996 57.71337904 -15.46060946 57.91570099 -25 57 C-34.15822518 54.68671773 -39.49491621 50.13951828 -44.66796875 42.4140625 C-49.09136095 34.39747487 -49.44989958 24.78465092 -47.2421875 15.9765625 C-43.97477249 7.40924598 -38.97860604 2.40243473 -31 -2 C-21.01700853 -6.0564497 -9.33814738 -5.32854737 0 0 Z " fill="#F4F4F4" transform="translate(380,721)"/>
<path d="M0 0 C6.35557558 4.64039252 11.2429567 9.70960946 13.11328125 17.54296875 C14.29347809 28.32061535 13.37440572 36.79358574 6.5390625 45.5625 C0.82649984 51.88759852 -5.20699039 54.61900147 -13.72119141 55.06445312 C-23.51920653 55.25554513 -30.46684617 52.88139052 -37.76171875 46.29296875 C-44.44393037 38.88408637 -45.78315958 31.19639223 -45.33203125 21.42578125 C-44.41764858 13.45300603 -40.72930378 7.35914885 -34.8046875 2.015625 C-25.06818925 -5.46026062 -10.60929306 -6.36557584 0 0 Z " fill="#F4F4F4" transform="translate(968.88671875,1050.45703125)"/>
<path d="M0 0 C6.35557558 4.64039252 11.2429567 9.70960946 13.11328125 17.54296875 C14.29347809 28.32061535 13.37440572 36.79358574 6.5390625 45.5625 C0.82649984 51.88759852 -5.20699039 54.61900147 -13.72119141 55.06445312 C-23.51920653 55.25554513 -30.46684617 52.88139052 -37.76171875 46.29296875 C-44.44393037 38.88408637 -45.78315958 31.19639223 -45.33203125 21.42578125 C-44.41764858 13.45300603 -40.72930378 7.35914885 -34.8046875 2.015625 C-25.06818925 -5.46026062 -10.60929306 -6.36557584 0 0 Z " fill="#F4F4F4" transform="translate(561.88671875,1050.45703125)"/>
<path d="M0 0 C6.35557558 4.64039252 11.2429567 9.70960946 13.11328125 17.54296875 C14.29347809 28.32061535 13.37440572 36.79358574 6.5390625 45.5625 C0.82649984 51.88759852 -5.20699039 54.61900147 -13.72119141 55.06445312 C-23.51920653 55.25554513 -30.46684617 52.88139052 -37.76171875 46.29296875 C-44.44393037 38.88408637 -45.78315958 31.19639223 -45.33203125 21.42578125 C-44.41764858 13.45300603 -40.72930378 7.35914885 -34.8046875 2.015625 C-25.06818925 -5.46026062 -10.60929306 -6.36557584 0 0 Z " fill="#F4F4F4" transform="translate(968.88671875,397.45703125)"/>
<path d="M0 0 C6.35557558 4.64039252 11.2429567 9.70960946 13.11328125 17.54296875 C14.29347809 28.32061535 13.37440572 36.79358574 6.5390625 45.5625 C0.82649984 51.88759852 -5.20699039 54.61900147 -13.72119141 55.06445312 C-23.51920653 55.25554513 -30.46684617 52.88139052 -37.76171875 46.29296875 C-44.44393037 38.88408637 -45.78315958 31.19639223 -45.33203125 21.42578125 C-44.41764858 13.45300603 -40.72930378 7.35914885 -34.8046875 2.015625 C-25.06818925 -5.46026062 -10.60929306 -6.36557584 0 0 Z " fill="#F4F4F4" transform="translate(556.88671875,397.45703125)"/>
</svg>
